<?xml version="1.0" standalone="no"?>
<!DOCTYPE svg PUBLIC "-//W3C//DTD SVG 20010904//EN"
 "http://www.w3.org/TR/2001/REC-SVG-20010904/DTD/svg10.dtd">
<svg version="1.0" xmlns="http://www.w3.org/2000/svg"
 width="500.000000pt" height="500.000000pt" viewBox="0 0 500.000000 500.000000"
 preserveAspectRatio="xMidYMid meet">

<g transform="translate(0.000000,500.000000) scale(0.100000,-0.100000)"
fill="#000000" stroke="none">
<path d="M2215 4590 c-11 -5 -43 -9 -71 -9 -28 -1 -68 -8 -87 -16 -20 -8 -49
-15 -65 -15 -15 0 -37 -7 -48 -15 -10 -8 -33 -15 -50 -15 -17 0 -44 -10 -59
-22 -16 -13 -64 -41 -109 -63 -81 -41 -84 -44 -100 -116 -3 -15 -14 -29 -23
-33 -42 -15 -113 -66 -113 -81 0 -7 -14 -39 -30 -70 -22 -42 -27 -61 -20 -70
8 -9 7 -27 -1 -59 -15 -59 -7 -118 19 -146 19 -21 21 -21 31 -3 9 16 10 16 11
1 0 -9 -4 -20 -10 -23 -16 -10 -12 -35 10 -62 14 -19 20 -41 20 -80 0 -34 9
-78 24 -116 41 -103 52 -150 38 -155 -20 -6 -14 -85 11 -133 13 -24 29 -70 37
-103 10 -44 16 -54 21 -40 15 37 19 -35 8 -122 -14 -105 8 -201 78 -334 98
-187 169 -280 213 -280 10 0 23 -7 31 -16 11 -13 6 -21 -33 -57 -74 -69 -93
-113 -119 -279 -11 -72 -13 -77 -43 -89 -17 -7 -41 -21 -54 -32 -15 -15 -41
-22 -82 -25 -33 -2 -60 -8 -60 -13 0 -5 9 -9 20 -9 13 0 24 -10 30 -25 5 -14
14 -25 20 -25 5 0 10 -5 10 -12 0 -7 12 -23 27 -35 20 -18 29 -20 40 -11 8 6
10 14 5 17 -5 3 11 25 34 47 31 29 46 38 53 30 5 -6 11 -59 15 -118 5 -95 4
-107 -12 -111 -10 -3 -6 -5 11 -6 21 -1 27 4 27 19 0 11 4 28 9 38 6 9 13 38
16 63 l6 46 54 0 c30 0 55 -4 55 -8 0 -5 5 -9 11 -9 5 0 7 5 3 11 -3 6 1 10
12 9 11 -1 22 -1 27 0 7 2 21 6 33 9 3 0 -6 16 -20 34 -14 18 -32 49 -41 69
-11 28 -21 37 -42 40 -27 3 -28 5 -26 58 4 110 23 131 44 50 14 -55 43 -76 64
-46 19 25 41 19 64 -17 11 -17 21 -26 21 -19 0 10 4 10 16 -2 19 -19 38 -20
56 -3 22 21 67 37 73 26 4 -5 14 -8 23 -5 10 3 26 -1 36 -9 20 -15 20 -15 0
-30 -18 -15 -17 -15 9 -9 28 6 28 6 15 -16 -15 -25 -77 -60 -107 -60 -33 0
-135 -42 -162 -67 -14 -12 -30 -23 -35 -23 -26 0 -117 -55 -138 -84 -33 -44
-87 -158 -88 -187 -1 -13 -7 -32 -13 -42 -13 -19 -8 -67 7 -67 5 0 6 -4 3 -10
-3 -5 -16 -10 -28 -10 -18 0 -19 -2 -7 -10 11 -8 22 -2 43 21 19 21 32 28 40
21 21 -16 57 -24 57 -12 0 6 10 24 21 40 13 17 19 35 15 45 -8 22 4 42 14 25
6 -9 13 -3 24 19 21 40 51 43 41 4 -3 -16 -13 -35 -21 -44 -8 -8 -14 -23 -14
-32 0 -9 -6 -31 -14 -49 -8 -18 -23 -55 -35 -83 -11 -27 -26 -72 -31 -100 -6
-27 -19 -72 -29 -100 -10 -27 -21 -70 -25 -95 -3 -24 -12 -50 -19 -58 -11 -10
-15 -9 -25 12 -9 19 -8 25 4 30 16 6 19 26 3 26 -5 0 -7 -4 -4 -10 3 -5 -1
-10 -9 -10 -9 0 -16 5 -16 10 0 21 -19 8 -29 -20 -15 -46 -22 -38 -20 23 3 85
5 103 14 109 5 4 10 20 11 36 1 26 -1 28 -21 18 -15 -7 -20 -16 -17 -33 4 -21
2 -22 -29 -17 -36 7 -37 7 -55 5 -14 -1 -26 -41 -13 -41 5 0 12 7 15 15 7 17
64 21 64 4 0 -6 -9 -8 -20 -4 -11 4 -20 2 -20 -4 0 -6 4 -11 9 -11 14 0 23
-32 11 -44 -7 -7 -10 -4 -10 10 0 28 -9 35 -31 23 -26 -13 -24 -33 4 -47 19
-10 17 -11 -16 -6 -30 5 -41 3 -52 -12 -8 -12 -10 -21 -3 -25 5 -4 -3 -10 -18
-13 -16 -4 -30 -3 -31 1 -2 5 -17 7 -34 5 -20 -3 -29 -9 -25 -18 3 -8 1 -14
-4 -14 -21 0 -9 -20 15 -26 14 -3 23 -10 20 -14 -3 -5 1 -11 7 -14 7 -3 1 -4
-14 -2 -16 2 -28 0 -28 -5 0 -4 -3 -15 -6 -23 -5 -12 -2 -15 12 -10 37 13 64
46 58 69 -6 26 11 43 20 20 3 -8 15 -15 26 -15 11 0 20 -4 20 -10 0 -5 -7 -10
-15 -10 -8 0 -12 -6 -9 -14 3 -9 -2 -16 -13 -18 -16 -3 -16 -5 4 -16 19 -11
25 -10 42 7 11 11 16 23 13 27 -4 4 1 4 11 1 16 -6 18 -2 15 23 -2 19 3 35 12
41 12 9 11 10 -7 6 -24 -5 -51 17 -34 27 5 4 12 2 16 -4 4 -7 12 -7 26 0 16 9
19 7 19 -9 0 -11 6 -22 13 -24 9 -4 9 -8 -2 -15 -12 -9 -12 -12 1 -25 8 -9 20
-12 27 -8 7 5 30 5 51 1 21 -4 45 -3 53 1 23 13 9 -28 -22 -69 -24 -31 -29
-33 -71 -27 -25 4 -55 9 -68 12 -19 5 -22 1 -22 -27 0 -22 4 -29 13 -24 8 5 8
2 -2 -9 -11 -15 -11 -17 2 -17 8 0 17 4 19 9 2 5 17 12 33 15 17 4 24 3 18 0
-22 -10 -14 -19 17 -21 17 -1 30 2 30 7 0 6 14 10 30 10 23 0 30 5 30 19 0 13
10 20 31 25 18 3 28 10 24 16 -4 6 -16 8 -27 4 -17 -5 -20 -3 -15 11 4 9 7 21
7 27 0 6 9 8 20 5 11 -3 20 -1 20 4 0 5 6 9 14 9 23 0 31 22 12 32 -9 5 -16
18 -16 28 0 27 -19 25 -24 -3 -3 -12 -7 -31 -9 -42 -3 -13 -5 -9 -6 10 -1 52
9 76 30 70 22 -7 27 20 7 28 -7 3 -4 6 8 6 11 1 24 4 28 8 4 5 12 9 17 9 5 1
13 2 19 3 5 0 7 8 5 16 -16 49 -15 48 -30 35 -17 -14 -20 -30 -4 -30 5 0 7 6
3 13 -5 9 -3 9 7 -1 12 -11 12 -14 -1 -22 -9 -6 -17 -5 -22 3 -13 20 -9 46 10
56 16 10 16 10 0 11 -10 0 -18 2 -18 5 0 20 25 113 33 123 6 7 12 27 14 44 2
16 14 53 28 80 14 27 25 55 25 62 0 17 47 79 62 82 7 1 22 5 33 9 16 5 17 5 5
-4 -20 -14 -3 -28 18 -15 10 6 29 7 45 3 24 -6 26 -5 16 7 -14 17 -2 18 35 4
18 -7 24 -14 20 -27 -4 -12 1 -10 15 7 19 24 19 25 2 30 -16 4 -17 7 -5 18 8
7 14 8 14 2 0 -5 5 -10 11 -10 5 0 7 6 3 13 -6 9 -4 9 8 -1 22 -17 70 1 61 23
-4 11 -1 16 8 15 8 -1 27 -2 43 -1 28 1 29 1 11 21 -18 20 -14 35 8 35 7 1 11
6 9 13 -1 7 5 12 14 12 8 0 12 -5 9 -10 -3 -5 -2 -10 3 -10 6 0 12 6 15 14 3
8 24 17 46 21 23 4 41 10 41 13 0 4 24 7 53 7 28 0 58 6 65 13 18 17 42 15 42
-3 0 -8 6 -15 14 -15 10 0 12 7 8 22 -5 20 -2 21 36 15 32 -4 42 -2 42 9 0 16
26 19 35 4 3 -5 10 -10 16 -10 5 0 -4 14 -20 30 -36 38 -44 73 -20 88 15 9 20
8 28 -6 6 -9 11 -12 11 -6 0 16 48 15 54 -1 3 -9 15 -11 38 -6 37 8 50 36 20
43 -15 4 -18 1 -15 -13 4 -12 0 -19 -10 -19 -8 0 -17 9 -20 20 -3 11 0 20 6
20 7 0 6 4 -3 9 -16 11 -33 4 -25 -9 3 -4 -1 -10 -9 -13 -20 -8 -49 -2 -54 11
-2 6 5 8 17 5 12 -3 21 -1 21 6 0 6 -9 11 -20 11 -11 0 -20 5 -20 11 0 6 12
10 28 9 39 -3 49 -1 35 8 -8 5 -9 13 -3 22 7 10 10 11 10 3 0 -7 4 -13 10 -13
5 0 7 7 3 16 -5 13 0 14 31 9 27 -6 36 -4 36 6 0 10 13 14 40 14 22 1 40 -3
40 -8 0 -4 5 -5 10 -2 6 3 10 1 10 -4 0 -6 10 -11 23 -11 22 0 22 0 -2 13 -32
16 -37 34 -13 41 14 5 18 13 14 31 l-4 25 48 -24 c27 -13 75 -36 107 -51 36
-17 57 -33 57 -43 0 -15 2 -15 10 -2 6 9 10 10 10 3 0 -7 16 -15 34 -19 42 -7
71 0 41 11 -51 17 -101 40 -115 50 -8 7 -34 19 -57 28 -48 19 -143 78 -162
101 -11 13 -11 16 0 16 10 1 9 4 -3 14 -10 7 -15 16 -11 19 3 4 -1 7 -10 7 -9
0 -17 5 -17 11 0 5 4 8 9 4 5 -3 12 -1 16 5 3 5 14 10 25 10 32 0 31 28 -2 39
-37 13 -48 14 -29 2 10 -7 4 -17 -25 -44 -21 -19 -43 -33 -48 -30 -5 4 -1 12
9 20 11 7 15 13 9 13 -5 0 -1 5 9 11 9 5 17 18 17 27 0 10 5 23 12 30 7 7 8
12 4 12 -4 0 -16 -10 -26 -22 -18 -22 -18 -23 -39 -4 -12 11 -21 14 -21 9 0
-6 -7 -14 -16 -17 -8 -3 -12 -2 -9 4 8 14 -8 13 -22 -1 -16 -16 -44 -4 -37 16
9 23 -26 8 -54 -24 l-24 -26 7 25 c11 37 36 61 57 54 24 -7 48 7 24 16 -15 5
-12 11 18 42 32 33 48 70 29 67 -38 -6 -75 3 -81 20 -8 24 -22 27 -33 10 -14
-24 -50 31 -44 66 4 17 7 40 8 53 1 12 5 22 9 22 3 0 12 17 19 38 10 32 47
118 80 187 6 12 16 71 23 133 7 62 16 115 19 119 4 3 3 11 -2 17 -12 14 -15
74 -6 103 4 12 23 28 45 37 47 19 50 23 54 83 4 59 -8 93 -34 100 -25 7 -25
15 0 31 11 7 20 19 20 28 0 29 23 9 41 -36 28 -70 24 -127 -12 -184 -16 -27
-28 -50 -26 -53 6 -5 67 68 67 80 0 5 9 21 19 36 46 65 50 170 6 217 -28 30
-42 30 -73 2 l-25 -23 12 22 c6 12 16 25 22 28 7 5 6 11 -1 20 -12 14 0 107
18 143 5 9 12 43 16 75 5 44 2 63 -9 81 -11 16 -13 26 -6 31 6 3 11 22 11 41
0 19 5 43 11 53 17 26 4 63 -29 85 -16 11 -29 24 -29 30 1 36 -4 48 -18 43 -8
-4 -17 -2 -20 3 -4 6 0 10 7 10 11 0 11 2 0 9 -7 4 -12 13 -10 18 4 15 -106
119 -157 149 -24 14 -50 22 -59 18 -9 -4 -18 0 -22 9 -3 9 -23 23 -45 31 -21
9 -39 20 -39 25 0 10 -56 45 -90 56 -15 5 -20 4 -16 -4 10 -15 5 -14 -56 10
-113 45 -163 56 -248 57 -47 0 -94 -4 -105 -8z m245 -52 c0 -6 -6 -5 -15 2 -8
7 -15 14 -15 16 0 2 7 1 15 -2 8 -4 15 -11 15 -16z m-1013 -580 c-3 -7 -5 -2
-5 12 0 14 2 19 5 13 2 -7 2 -19 0 -25z m982 -65 c-3 -19 3 -22 25 -13 17 6
26 5 30 -3 2 -7 5 -3 5 7 1 18 3 17 21 -4 11 -13 20 -18 20 -12 0 19 27 14 35
-5 4 -12 -1 -24 -15 -35 -18 -14 -19 -18 -6 -18 9 0 16 -4 16 -10 0 -5 5 -10
10 -10 10 0 50 -36 50 -44 0 -2 -24 4 -52 15 -57 21 -123 26 -113 9 4 -7 -2
-9 -18 -5 -14 4 -28 2 -31 -4 -4 -6 -1 -11 6 -12 22 -1 -29 -18 -120 -40 -48
-11 -91 -25 -96 -30 -6 -5 -24 -9 -41 -9 -18 0 -35 -3 -38 -6 -14 -14 -73 -12
-89 3 -9 8 -22 12 -27 8 -15 -9 -129 -17 -141 -10 -5 3 -4 19 2 38 5 17 10 37
11 44 0 7 20 20 44 30 23 10 43 21 43 25 0 3 13 5 29 3 18 -2 34 2 41 11 7 8
19 14 26 14 8 0 14 7 14 16 0 8 5 12 10 9 6 -3 10 -2 10 3 0 5 10 9 23 8 12
-1 21 -7 20 -13 -1 -6 14 -14 35 -17 41 -7 91 4 92 19 0 15 90 35 111 25 12
-7 21 -5 29 5 13 16 31 20 29 8z m351 -73 c0 -5 -6 -10 -14 -10 -8 0 -16 -6
-19 -12 -2 -7 -8 -10 -12 -6 -13 12 4 38 25 38 11 0 20 -4 20 -10z m-100 -20
c0 -5 -5 -10 -11 -10 -5 0 -7 5 -4 10 3 6 8 10 11 10 2 0 4 -4 4 -10z m117
-17 c-3 -3 -11 -2 -17 2 -9 6 -9 10 1 16 14 8 27 -7 16 -18z m6 -32 c-2 -6 0
-10 5 -8 10 3 47 -35 56 -59 5 -10 10 -35 13 -54 2 -19 8 -66 13 -105 9 -75 4
-129 -12 -119 -7 5 -9 -16 -6 -59 2 -41 0 -63 -6 -60 -5 4 -7 -1 -3 -9 4 -11
-1 -18 -14 -21 -19 -5 -23 3 -19 33 1 10 -5 7 -20 -8 -16 -17 -25 -20 -34 -13
-7 6 -16 8 -20 3 -4 -4 -12 1 -17 11 -12 20 -29 23 -29 3 0 -8 -8 -17 -17 -20
-10 -4 -13 -10 -8 -14 13 -9 19 -46 7 -38 -23 14 -19 -25 5 -48 14 -15 23 -29
20 -33 -4 -3 -7 0 -7 7 0 9 -6 8 -20 -5 -11 -10 -20 -13 -20 -7 0 7 -7 12 -15
12 -8 0 -15 -4 -15 -9 0 -5 -16 6 -36 24 -19 18 -49 36 -66 39 -28 6 -96 35
-171 73 -15 8 -32 11 -38 7 -6 -3 -24 3 -40 15 -15 11 -33 21 -39 21 -20 0 -9
-20 19 -35 21 -10 29 -22 28 -37 -2 -31 -14 -38 -67 -38 -26 0 -56 -7 -69 -17
-14 -9 -21 -12 -18 -6 4 6 0 13 -8 17 -8 3 -14 0 -12 -6 3 -14 -34 -19 -50 -6
-7 6 -13 7 -13 3 0 -4 -7 -2 -15 5 -10 8 -29 10 -56 6 l-41 -7 4 31 5 30 -22
-20 c-12 -11 -26 -20 -32 -20 -7 0 -35 -27 -64 -60 -44 -50 -57 -60 -78 -56
-51 8 -71 19 -71 37 0 10 -11 29 -23 42 -18 17 -25 39 -30 88 -4 35 -11 99
-16 142 -10 89 -3 209 11 205 6 -2 10 -53 10 -116 0 -62 4 -112 8 -112 4 0 5
-11 2 -25 -6 -32 16 -33 24 -1 7 29 36 39 62 20 11 -8 51 -18 89 -24 63 -9 71
-8 116 15 54 28 72 31 61 13 -5 -10 -3 -10 7 0 8 7 14 16 15 20 0 4 10 27 22
52 11 25 24 58 27 73 5 27 8 28 53 25 l47 -3 8 -50 c10 -65 33 -94 80 -102 33
-5 37 -3 37 16 0 24 3 25 52 8 37 -13 159 -6 218 11 14 5 41 5 60 1 19 -4 37
-4 40 0 3 5 19 8 35 8 59 -1 85 3 85 14 0 6 -9 13 -20 16 -12 3 -20 12 -18 22
1 9 -1 22 -5 29 -5 8 -3 12 7 12 9 0 16 7 16 15 0 8 5 15 12 15 9 0 9 3 0 12
-10 10 -15 10 -22 -2 -11 -17 -12 -12 -12 47 1 23 6 51 11 61 6 11 7 22 4 26
-3 3 -1 6 6 6 8 0 10 7 6 20 -3 11 -3 25 0 30 9 14 31 6 28 -9z m-1099 -102
c-12 -13 -20 -16 -22 -9 -3 7 2 16 9 21 25 16 32 9 13 -12z m-69 -9 c3 -5 1
-10 -4 -10 -6 0 -11 5 -11 10 0 6 2 10 4 10 3 0 8 -4 11 -10z m1365 -291 c0
-9 -6 -21 -13 -27 -10 -9 -13 -1 -14 36 -2 43 -1 45 12 28 8 -11 15 -27 15
-37z m-170 -119 c0 -5 -5 -10 -11 -10 -5 0 -7 5 -4 10 3 6 8 10 11 10 2 0 4
-4 4 -10z m34 -12 c1 -7 7 -23 14 -35 7 -12 12 -28 12 -35 -1 -7 -8 -1 -16 15
-8 15 -21 27 -29 27 -8 0 -15 5 -15 10 0 6 5 10 10 10 6 0 10 8 10 17 0 18 10
12 14 -9z m-64 -51 c0 -5 -7 -7 -15 -3 -17 6 -20 -11 -5 -34 8 -12 10 -12 10
-1 0 8 2 12 5 9 3 -3 2 -15 -3 -28 -8 -23 -9 -22 -20 6 -7 16 -11 41 -10 55 2
23 5 25 20 15 10 -6 18 -15 18 -19z m55 -47 c1 -14 -2 -17 -10 -10 -7 5 -15 7
-18 3 -4 -3 -7 1 -7 10 0 14 20 29 29 20 3 -2 5 -12 6 -23z m-555 -169 c0 -4
11 -6 25 -3 15 2 25 0 25 -7 0 -6 -11 -11 -24 -11 -13 0 -26 -6 -29 -14 -6
-14 -44 -25 -114 -31 -24 -2 -47 -6 -52 -9 -15 -9 -69 5 -75 20 -3 8 8 20 31
30 29 14 39 15 55 5 17 -10 22 -9 32 5 10 13 21 15 44 11 17 -4 34 -2 37 3 8
12 45 13 45 1z m-65 -111 c8 -13 -33 -29 -57 -22 -18 4 -18 5 -1 18 21 16 49
18 58 4z m-95 -16 c9 -16 -54 -15 -75 0 -19 14 -17 15 25 12 25 -2 47 -7 50
-12z m205 -84 c3 -5 17 -10 31 -10 13 0 24 -6 25 -12 0 -7 2 -20 4 -29 2 -14
-6 -17 -49 -18 -71 0 -80 7 -54 47 21 33 32 39 43 22z m-297 -97 c-12 -15 -48
-18 -48 -4 0 11 14 17 41 17 13 0 15 -3 7 -13z m925 -460 c8 -7 -11 -33 -23
-33 -5 0 -6 9 -3 20 5 20 15 25 26 13z m51 -9 c3 -8 2 -12 -4 -9 -6 3 -10 0
-10 -8 0 -20 -107 -130 -120 -122 -6 4 -9 1 -8 -5 4 -15 -88 -80 -113 -80 -10
0 -21 -5 -24 -10 -4 -6 -16 -8 -27 -4 -17 5 -20 3 -14 -12 4 -10 4 -15 0 -11
-4 3 -32 -7 -62 -24 -53 -29 -61 -30 -149 -27 -51 1 -93 6 -93 10 0 5 -8 8
-17 8 -13 0 -1 17 37 55 30 30 59 55 63 55 5 0 16 8 25 18 10 10 16 16 15 13
-2 -2 2 -10 9 -18 8 -11 7 -17 -8 -28 -18 -13 -16 -14 19 -15 34 0 82 21 98
43 13 19 44 2 44 -24 0 -24 0 -24 37 12 21 20 38 42 38 48 0 6 9 11 20 11 12
0 17 -5 14 -13 -9 -23 73 -8 98 19 13 13 27 24 32 24 16 0 76 71 70 82 -4 6 0
14 7 19 18 11 16 12 23 -7z m107 -27 c-1 -12 -15 -9 -19 4 -3 6 1 10 8 8 6 -3
11 -8 11 -12z m-254 -17 c-3 -11 -1 -20 4 -20 5 0 9 6 9 13 0 7 7 3 15 -7 19
-25 7 -38 -36 -41 -26 -2 -29 -1 -16 7 23 12 13 28 -13 21 -14 -4 -20 0 -20
11 0 10 9 16 25 16 14 0 25 5 25 10 0 6 3 10 6 10 4 0 4 -9 1 -20z m-157 -5
c-7 -9 -15 -13 -19 -10 -3 3 1 10 9 15 21 14 24 12 10 -5z m80 -5 c0 -5 -5
-10 -11 -10 -5 0 -7 5 -4 10 3 6 8 10 11 10 2 0 4 -4 4 -10z m-171 -44 c-22
-20 -22 -20 -6 0 9 11 17 27 18 35 0 11 2 11 6 0 3 -7 -5 -23 -18 -35z m451
29 c-9 -11 -9 -15 -1 -15 7 0 9 -4 6 -10 -9 -14 -24 -12 -21 3 2 15 15 37 23
37 3 0 0 -7 -7 -15z m55 -33 c-8 -8 -25 10 -19 20 4 6 9 5 15 -3 4 -7 6 -15 4
-17z m-375 -2 c0 -5 -2 -10 -4 -10 -3 0 -8 5 -11 10 -3 6 -1 10 4 10 6 0 11
-4 11 -10z m74 -6 c3 -8 2 -12 -4 -9 -6 3 -10 10 -10 16 0 14 7 11 14 -7z
m260 -14 c-10 -4 -21 -6 -24 -3 -8 7 24 22 34 16 5 -4 1 -10 -10 -13z m-507
-25 c-4 -8 -11 -15 -17 -15 -7 0 -7 6 0 21 13 23 26 19 17 -6z m280 -231 c-3
-3 -12 -4 -19 -1 -8 3 -5 6 6 6 11 1 17 -2 13 -5z m-487 -194 c0 -5 -5 -10
-11 -10 -5 0 -7 5 -4 10 3 6 8 10 11 10 2 0 4 -4 4 -10z m-419 -89 c21 -16 22
-22 11 -45 -8 -17 -19 -26 -34 -25 l-23 0 23 9 c15 6 22 18 22 36 0 23 -3 26
-30 22 -24 -4 -27 -2 -19 9 15 17 22 17 50 -6z m-51 -54 c0 -5 -4 -5 -10 -2
-5 3 -10 14 -10 23 0 15 2 15 10 2 5 -8 10 -19 10 -23z m-273 -473 c-3 -3 -12
-4 -19 -1 -8 3 -5 6 6 6 11 1 17 -2 13 -5z"/>
<path d="M2518 3843 c6 -2 18 -2 25 0 6 3 1 5 -13 5 -14 0 -19 -2 -12 -5z"/>
<path d="M2760 3394 c0 -15 26 -19 34 -5 3 5 -3 11 -14 14 -13 3 -20 0 -20 -9z"/>
<path d="M1675 3208 c-8 -21 20 -55 31 -37 3 6 2 14 -3 18 -6 3 -12 13 -15 21
-5 13 -7 12 -13 -2z"/>
<path d="M2480 1970 c-8 -5 -12 -11 -9 -14 2 -3 11 -1 19 4 8 5 12 11 9 14 -2
3 -11 1 -19 -4z"/>
<path d="M2445 1920 c3 -5 11 -10 16 -10 6 0 7 5 4 10 -3 6 -11 10 -16 10 -6
0 -7 -4 -4 -10z"/>
<path d="M2495 1919 c-10 -15 3 -25 16 -12 7 7 7 13 1 17 -6 3 -14 1 -17 -5z"/>
<path d="M2972 2328 c-14 -14 -16 -28 -3 -28 9 0 24 30 18 36 -2 2 -9 -2 -15
-8z"/>
<path d="M3270 2186 c0 -9 5 -16 10 -16 6 0 10 4 10 9 0 6 -4 13 -10 16 -5 3
-10 -1 -10 -9z"/>
<path d="M1585 2060 c-16 -4 -48 -15 -70 -24 l-40 -16 35 6 c19 3 54 10 78 14
46 7 83 31 47 29 -11 -1 -33 -5 -50 -9z"/>
<path d="M3186 2041 c-4 -5 3 -7 14 -4 23 6 26 13 6 13 -8 0 -17 -4 -20 -9z"/>
<path d="M3233 2023 c9 -2 23 -2 30 0 6 3 -1 5 -18 5 -16 0 -22 -2 -12 -5z"/>
<path d="M3275 2000 c-3 -5 3 -10 15 -10 12 0 18 5 15 10 -3 6 -10 10 -15 10
-5 0 -12 -4 -15 -10z"/>
<path d="M3073 1983 c-13 -2 -23 -9 -23 -14 0 -14 24 -11 46 6 19 15 16 16
-23 8z"/>
<path d="M3145 1977 c13 -7 19 -20 17 -31 -2 -10 0 -16 6 -12 5 3 12 16 14 29
4 20 0 23 -26 25 -29 2 -30 1 -11 -11z"/>
<path d="M3214 1975 c8 -8 23 -15 32 -15 16 0 16 1 -2 15 -26 20 -51 20 -30 0z"/>
<path d="M2990 1959 c0 -5 11 -9 25 -9 14 0 25 2 25 4 0 2 -11 6 -25 8 -14 3
-25 1 -25 -3z"/>
<path d="M3128 1953 c7 -3 16 -2 19 1 4 3 -2 6 -13 5 -11 0 -14 -3 -6 -6z"/>
<path d="M3585 1932 c52 -31 73 -35 40 -8 -16 14 -39 25 -50 26 -16 0 -14 -4
10 -18z"/>
<path d="M3190 1930 c0 -5 6 -10 14 -10 8 0 18 5 21 10 3 6 -3 10 -14 10 -12
0 -21 -4 -21 -10z"/>
<path d="M3105 1912 c14 -14 123 -26 110 -13 -6 6 -35 13 -65 17 -35 3 -51 2
-45 -4z"/>
<path d="M1485 1900 c-3 -5 1 -10 10 -10 9 0 13 5 10 10 -3 6 -8 10 -10 10 -2
0 -7 -4 -10 -10z"/>
<path d="M3100 1874 c0 -8 5 -12 10 -9 6 4 8 11 5 16 -9 14 -15 11 -15 -7z"/>
<path d="M3135 1880 c3 -5 8 -10 11 -10 2 0 4 5 4 10 0 6 -5 10 -11 10 -5 0
-7 -4 -4 -10z"/>
<path d="M3298 1863 c7 -3 16 -2 19 1 4 3 -2 6 -13 5 -11 0 -14 -3 -6 -6z"/>
<path d="M1371 1824 c0 -11 3 -14 6 -6 3 7 2 16 -1 19 -3 4 -6 -2 -5 -13z"/>
<path d="M1450 1829 c0 -5 5 -7 10 -4 6 3 10 8 10 11 0 2 -4 4 -10 4 -5 0 -10
-5 -10 -11z"/>
<path d="M2948 1828 c9 -9 15 -9 24 0 9 9 7 12 -12 12 -19 0 -21 -3 -12 -12z"/>
<path d="M3384 1828 c-9 -15 10 -30 29 -22 9 3 17 10 17 14 0 12 -39 19 -46 8z"/>
<path d="M3218 1818 c9 -9 15 -9 24 0 9 9 7 12 -12 12 -19 0 -21 -3 -12 -12z"/>
<path d="M3480 1820 c-12 -8 -10 -10 8 -10 13 0 20 4 17 10 -7 12 -6 12 -25 0z"/>
<path d="M1220 1809 c0 -5 5 -7 10 -4 6 3 10 8 10 11 0 2 -4 4 -10 4 -5 0 -10
-5 -10 -11z"/>
<path d="M2930 1807 c27 -15 36 -14 25 2 -3 6 -16 11 -28 11 -21 0 -21 -1 3
-13z"/>
<path d="M3530 1800 c0 -5 5 -10 10 -10 6 0 10 5 10 10 0 6 -4 10 -10 10 -5 0
-10 -4 -10 -10z"/>
<path d="M3730 1800 c-9 -6 -10 -10 -3 -10 6 0 15 5 18 10 8 12 4 12 -15 0z"/>
<path d="M3280 1774 c0 -16 2 -16 24 -8 22 8 20 19 -4 21 -11 1 -20 -4 -20
-13z"/>
<path d="M3860 1779 c0 -6 8 -8 19 -4 10 3 30 1 45 -4 14 -6 26 -7 26 -2 0 5
-7 12 -16 15 -26 10 -74 7 -74 -5z"/>
<path d="M3465 1770 c3 -5 10 -10 16 -10 5 0 9 5 9 10 0 6 -7 10 -16 10 -8 0
-12 -4 -9 -10z"/>
<path d="M3516 1765 c4 -8 13 -15 21 -15 13 0 13 3 3 15 -7 8 -16 15 -21 15
-5 0 -6 -7 -3 -15z"/>
<path d="M1302 1752 c8 -10 14 -10 27 0 9 7 17 13 19 14 1 1 -11 1 -27 0 -22
-1 -27 -4 -19 -14z"/>
<path d="M2968 1763 c7 -3 16 -2 19 1 4 3 -2 6 -13 5 -11 0 -14 -3 -6 -6z"/>
<path d="M3198 1763 c7 -3 16 -2 19 1 4 3 -2 6 -13 5 -11 0 -14 -3 -6 -6z"/>
<path d="M3667 1755 c-9 -8 -26 -15 -39 -15 -16 0 -19 -3 -10 -9 10 -6 7 -14
-14 -32 -15 -13 -40 -37 -55 -52 -17 -17 -33 -25 -40 -21 -7 4 -9 3 -6 -3 10
-16 -38 -58 -65 -58 -16 0 -22 -5 -20 -16 3 -21 -23 -44 -33 -29 -3 5 -11 10
-17 10 -6 0 -3 -9 6 -19 20 -22 12 -46 -11 -37 -12 5 -14 1 -10 -14 4 -15 -1
-24 -16 -30 -12 -5 -18 -9 -13 -9 13 -1 -35 -51 -49 -51 -6 0 -11 -10 -12 -22
-1 -11 -6 -24 -11 -27 -13 -9 -35 -69 -28 -79 3 -5 -4 -12 -17 -16 -18 -5 -20
-8 -7 -16 8 -5 10 -10 3 -10 -6 0 -9 -9 -6 -20 3 -12 0 -20 -7 -20 -9 0 -10
-4 -2 -13 8 -9 6 -16 -8 -25 -24 -15 -37 -77 -20 -97 6 -8 10 -22 7 -32 -4
-14 -5 -13 -6 5 0 12 -6 22 -12 22 -6 0 -8 -7 -5 -15 3 -9 -1 -18 -8 -21 -10
-4 -12 -13 -6 -34 7 -23 4 -29 -15 -38 -19 -9 -24 -8 -28 7 -2 10 0 26 5 35 5
9 5 16 0 16 -5 0 -8 11 -7 25 3 22 -1 25 -27 25 -25 0 -29 3 -25 20 5 21 -7
28 -18 10 -3 -5 -15 -10 -26 -10 -10 0 -19 -4 -19 -10 0 -5 8 -10 18 -10 9 0
23 -10 30 -21 13 -20 12 -21 -12 -15 -17 4 -26 2 -26 -6 0 -6 -6 -3 -14 7 -9
13 -28 20 -56 22 -34 2 -40 0 -31 -11 8 -10 6 -18 -10 -32 l-20 -18 21 -8 c17
-6 19 -11 10 -28 -16 -30 13 -37 39 -11 12 12 26 21 32 21 6 0 4 -7 -5 -15
-15 -16 -12 -45 5 -45 6 0 5 -9 -1 -20 -6 -11 -7 -20 -3 -19 28 5 83 -3 83
-11 0 -6 -12 -9 -26 -8 -15 2 -29 -3 -31 -9 -3 -9 6 -13 27 -13 29 0 31 -2 19
-16 -12 -15 -11 -16 9 -10 13 4 22 3 22 -3 0 -5 -7 -11 -16 -13 -12 -2 -6 -11
22 -30 38 -27 40 -38 4 -18 -14 7 -20 6 -24 -7 -9 -22 -4 -24 41 -26 22 -1 47
-10 57 -20 20 -19 20 -19 -14 -22 -14 -1 -34 4 -45 11 -11 8 -25 14 -32 14 -7
0 -22 8 -32 17 -15 12 -17 21 -10 34 7 14 4 21 -13 30 -13 7 -27 18 -31 25 -4
8 -15 14 -22 14 -8 0 -15 7 -15 15 0 9 -9 15 -21 15 -13 0 -19 5 -15 13 3 6 9
20 12 30 4 12 13 17 25 14 11 -3 19 -2 19 3 0 4 -12 10 -26 13 -20 4 -27 -1
-35 -21 -6 -16 -13 -22 -17 -16 -4 6 -17 14 -29 18 -13 4 -23 14 -23 21 0 8
-11 17 -24 21 -27 6 -93 0 -104 -11 -8 -8 19 -25 30 -19 4 3 8 1 8 -5 0 -5 -8
-12 -17 -14 -11 -3 -7 -5 10 -6 15 0 27 4 27 10 0 5 5 7 10 4 6 -3 10 -20 10
-36 0 -22 -6 -32 -22 -38 -23 -9 -23 -9 6 -20 16 -6 26 -14 23 -17 -3 -4 7
-17 24 -31 37 -31 38 -47 2 -38 -27 6 -27 6 -8 -9 11 -8 26 -16 33 -16 6 0 12
-5 12 -11 0 -6 -9 -9 -20 -6 -11 3 -18 1 -14 -4 10 -16 -20 -9 -43 10 -13 11
-23 28 -23 40 0 14 -5 19 -15 15 -8 -4 -15 -1 -15 5 0 8 -6 7 -20 -1 -27 -17
-25 -24 8 -36 l27 -10 -32 -1 c-17 -1 -34 -5 -37 -10 -7 -11 19 -22 37 -15 7
2 13 -4 14 -16 2 -21 -5 -24 -47 -20 -20 2 -22 -1 -12 -12 9 -11 9 -17 0 -26
-9 -9 -2 -12 30 -12 29 0 42 -4 42 -14 0 -18 -58 -25 -87 -10 -20 10 -21 12
-6 26 14 15 14 18 -1 39 -10 15 -16 18 -16 9 0 -13 -1 -13 -10 0 -8 12 -10 12
-15 -2 -4 -10 -4 -21 -1 -26 3 -6 -17 -9 -47 -7 -28 1 -42 0 -29 -2 27 -5 30
-23 3 -23 -10 0 -26 12 -36 26 -10 15 -22 23 -31 20 -17 -7 -19 15 -2 32 7 7
8 12 2 12 -6 0 -15 -5 -22 -12 -9 -9 -12 -8 -13 5 -1 9 -3 22 -4 27 -1 6 -3
13 -4 17 0 4 -6 2 -11 -3 -7 -7 -7 -19 -1 -36 7 -19 6 -29 -7 -42 -15 -15 -14
-16 8 -17 l25 0 -22 -11 c-26 -13 -30 -28 -8 -28 18 0 20 -26 3 -33 -9 -4 -3
-15 16 -32 l29 -27 -29 4 c-16 1 -30 -1 -32 -7 -2 -5 -12 -19 -23 -31 -19 -20
-17 -34 7 -34 6 0 15 11 18 25 5 20 13 25 37 25 20 0 29 -4 26 -12 -2 -8 -16
-12 -33 -10 -28 2 -28 2 -9 -12 11 -9 25 -20 32 -26 7 -5 24 -10 38 -10 14 0
25 -4 25 -9 0 -17 -37 -22 -85 -11 -26 6 -56 8 -67 4 -29 -9 -12 -19 28 -15
20 1 34 -2 34 -9 0 -6 6 -10 13 -9 19 3 67 -12 67 -22 0 -5 -5 -9 -11 -9 -5 0
-7 -4 -4 -10 3 -5 0 -7 -8 -4 -8 3 -18 1 -22 -5 -6 -10 14 -16 44 -12 7 2 11
-4 8 -11 -2 -7 -16 -12 -31 -11 -27 2 -36 -11 -13 -20 6 -3 0 -6 -15 -6 -30
-1 -38 -18 -12 -28 8 -3 13 -12 10 -19 -3 -8 -1 -14 3 -14 5 0 12 7 15 17 6
14 8 14 22 -3 13 -16 15 -17 10 -2 -3 11 2 22 14 28 16 9 18 8 13 -6 -5 -14
-2 -16 16 -11 26 6 39 -16 22 -37 -10 -12 -6 -16 21 -21 21 -5 33 -4 36 4 2 6
8 9 13 5 14 -8 11 -24 -5 -24 -7 0 -19 -7 -26 -15 -13 -16 -6 -19 30 -16 8 1
4 -5 -10 -13 -25 -15 -24 -15 22 -16 28 0 49 5 52 13 5 9 7 9 12 0 7 -15 44
-17 44 -3 0 6 5 10 11 10 5 0 7 -5 4 -10 -4 -7 59 -10 189 -10 140 1 196 5
200 13 3 9 5 9 5 0 1 -10 122 -13 572 -13 495 0 570 2 566 14 -4 10 2 18 16
22 19 6 55 34 43 34 -2 0 -16 -4 -30 -10 -18 -6 -26 -6 -26 1 0 10 -84 3 -105
-9 -5 -4 -28 -7 -50 -8 -22 -1 -40 -2 -40 -4 0 -1 -25 -4 -55 -6 -161 -8 -208
-9 -204 -2 3 4 16 8 30 8 14 0 23 4 20 9 -8 12 -275 0 -310 -14 -28 -12 -160
-12 -164 0 -2 6 -10 17 -18 26 -13 15 -13 17 1 22 8 4 15 14 15 23 0 10 6 14
14 11 25 -10 130 25 186 61 5 4 -21 22 -32 22 -4 0 -5 -8 -1 -17 3 -10 3 -15
-2 -11 -4 4 -13 4 -19 -1 -19 -15 -76 -24 -76 -12 0 6 -9 11 -20 11 -12 0 -20
-7 -20 -17 -1 -17 -1 -17 -11 0 -15 25 5 47 42 47 19 0 29 5 29 15 0 11 5 12
24 5 27 -10 86 -3 101 12 7 7 2 9 -17 6 -20 -4 -25 -2 -20 10 3 10 1 13 -6 8
-7 -4 -12 -2 -12 6 0 9 -13 12 -45 10 -28 -3 -45 0 -45 7 0 6 17 11 38 12 20
0 45 2 55 4 9 2 15 -1 12 -5 -6 -9 23 -21 40 -17 5 1 8 9 7 18 -2 11 7 19 23
23 22 6 25 9 15 21 -10 12 -9 15 9 15 11 0 21 5 21 10 0 12 -20 13 -39 1 -9
-6 -19 -4 -28 4 -7 8 -19 12 -26 10 -7 -2 -25 -6 -42 -10 -28 -6 -29 -8 -11
-20 18 -13 15 -35 -5 -35 -6 0 -7 5 -4 10 3 6 2 10 -4 10 -5 0 -11 -6 -14 -12
-2 -7 -8 -10 -12 -5 -5 4 -4 12 2 18 6 6 9 18 6 25 -3 8 0 14 7 14 7 0 9 8 5
20 -7 21 9 28 21 9 4 -7 24 -9 54 -6 27 3 52 1 58 -5 7 -7 12 -3 17 13 4 13
14 29 21 37 8 7 14 20 14 28 0 10 12 14 40 14 51 0 53 18 3 23 l-38 3 33 8
c33 9 40 20 21 31 -5 4 -18 0 -28 -9 -19 -17 -31 -12 -31 12 0 9 3 13 6 9 3
-3 16 6 28 20 16 18 32 25 61 26 22 1 40 -4 43 -11 5 -17 22 -15 22 3 0 9 9
15 23 15 12 0 32 3 45 6 13 4 22 2 22 -5 0 -6 -13 -14 -30 -17 -16 -4 -28 -10
-25 -14 3 -5 -9 -13 -25 -19 -17 -5 -29 -16 -28 -23 2 -7 -7 -14 -20 -16 -12
-2 -20 -7 -18 -11 3 -4 28 -3 55 2 34 7 57 7 73 0 20 -9 17 -11 -32 -18 -83
-11 -89 -15 -72 -45 13 -24 13 -24 9 -2 -5 20 -2 22 21 18 15 -2 30 -5 34 -5
4 -1 5 -8 2 -16 -4 -11 0 -15 16 -15 29 0 23 -34 -8 -38 -16 -3 -20 1 -16 11
8 22 -17 33 -31 14 -7 -10 -17 -17 -24 -17 -6 0 -11 -5 -11 -11 0 -7 10 -9 25
-7 14 3 25 1 25 -3 0 -5 -11 -9 -24 -9 -17 0 -26 -7 -30 -25 -4 -14 -13 -25
-21 -25 -8 0 -15 -5 -15 -11 0 -6 14 -9 33 -7 27 2 33 -1 35 -20 3 -16 -2 -22
-16 -22 -11 0 -28 -3 -38 -7 -11 -4 -15 -3 -10 5 11 17 -11 24 -27 7 -9 -8
-22 -13 -29 -10 -9 4 -14 -2 -14 -15 0 -15 7 -20 31 -21 26 0 27 -2 10 -9 -13
-6 2 -8 44 -5 36 3 61 2 58 -2 -8 -7 -17 -9 -95 -19 -46 -6 -52 -5 -46 10 5
12 2 15 -10 10 -19 -7 -22 -54 -3 -54 6 0 30 5 52 10 31 7 43 6 56 -6 11 -10
19 -12 24 -5 9 15 45 14 45 -1 1 -8 7 -5 15 6 8 10 12 22 10 26 -3 4 2 13 10
20 12 10 18 10 30 0 8 -7 24 -10 35 -7 11 3 20 1 20 -4 0 -5 7 -9 16 -9 8 0
12 5 8 11 -4 7 0 9 13 5 11 -4 32 -2 46 3 20 8 27 7 31 -6 5 -12 1 -14 -19
-11 -19 4 -25 1 -23 -10 3 -17 -58 -56 -73 -46 -5 3 -17 0 -26 -8 -14 -11 -16
-11 -11 2 2 8 19 17 36 20 20 3 29 9 24 16 -13 19 -37 22 -67 9 -22 -10 -25
-14 -11 -14 15 -1 16 -4 6 -16 -18 -21 -6 -30 43 -32 62 -2 62 -2 41 -17 -10
-8 -17 -17 -14 -20 10 -10 83 13 92 28 5 9 14 16 21 16 24 0 41 19 42 47 0 25
3 28 29 25 27 -4 28 -3 13 13 -9 9 -21 13 -27 10 -5 -3 -10 1 -10 9 0 8 9 18
20 21 28 9 26 37 -2 33 -19 -2 -23 2 -24 27 -1 17 -2 33 -3 36 -1 4 -17 10
-36 13 -34 7 -49 26 -20 26 9 0 12 6 9 15 -4 8 -18 15 -33 15 -20 0 -23 2 -11
10 21 13 7 22 -24 14 -21 -5 -24 -9 -15 -20 9 -11 6 -16 -16 -24 -50 -19 -81
-4 -51 26 16 16 41 10 31 -7 -4 -5 -4 -9 -1 -9 3 0 10 9 16 20 13 24 3 50 -11
29 -4 -7 -11 -10 -15 -6 -4 4 1 16 11 27 13 14 22 17 30 10 9 -8 14 -6 19 6
10 26 7 34 -12 34 -28 0 -34 11 -14 26 9 7 12 14 6 14 -7 0 -20 12 -29 27 -15
23 -16 28 -3 37 25 19 28 51 5 65 -12 8 -16 16 -10 22 14 14 3 59 -14 59 -11
0 -11 4 -3 21 9 15 8 24 -1 35 -6 8 -8 14 -3 14 4 0 3 5 -2 10 -7 7 -27 7 -59
1 -38 -7 -54 -6 -69 5 -18 12 -18 14 -3 14 9 0 17 4 17 9 0 15 33 22 42 9 6
-11 8 -10 8 0 0 7 -7 20 -15 28 -8 9 -15 11 -15 5 0 -6 -9 -11 -20 -11 -28 0
-15 27 16 33 13 2 24 0 24 -4 0 -5 9 -18 21 -30 15 -15 18 -24 9 -34 -9 -11
-7 -12 10 -8 23 6 38 23 20 23 -7 0 -5 6 4 15 8 8 19 15 25 15 6 0 8 6 5 14
-3 8 -16 13 -28 12 -17 -1 -22 -6 -18 -20 3 -12 1 -17 -8 -14 -17 5 -23 47
-10 63 6 7 24 11 40 9 17 -2 30 1 30 6 0 5 -14 8 -30 8 -36 -1 -48 8 -32 24
17 17 -12 42 -36 29 -20 -11 -47 1 -47 21 0 7 -9 12 -19 11 -16 -1 -15 1 4 19
11 11 28 17 36 14 7 -3 14 0 14 6 0 7 -14 8 -41 4 -23 -4 -38 -3 -35 3 8 12
76 19 82 9 6 -10 24 -1 24 12 0 4 -11 11 -24 14 -14 3 -28 15 -31 26 -6 17
-12 20 -41 14 -43 -8 -47 12 -4 21 33 7 37 17 15 38 -20 21 -9 27 49 27 l51 0
-30 26 c-24 21 -27 27 -15 34 8 6 20 10 27 10 17 0 25 -17 11 -23 -8 -3 -6 -6
5 -6 9 -1 17 4 17 11 0 9 3 9 12 0 9 -9 9 -15 0 -24 -7 -7 -12 -20 -12 -31 0
-10 -4 -15 -10 -12 -5 3 -17 2 -27 -3 -14 -9 -14 -10 6 -17 17 -5 28 0 47 20
13 14 24 30 24 36 0 5 5 9 10 9 19 0 10 -28 -21 -61 -42 -45 -41 -53 6 -51 33
2 37 1 22 -9 -14 -8 -16 -14 -7 -24 7 -8 9 -19 5 -25 -4 -6 9 -10 34 -10 23 0
41 -4 41 -10 0 -5 6 -7 14 -4 16 6 28 42 15 46 -5 2 -10 14 -12 27 -2 14 -9
27 -15 29 -7 2 -10 8 -7 13 4 5 -1 6 -9 3 -9 -3 -16 -14 -16 -23 0 -12 -2 -13
-8 -3 -6 8 -21 10 -45 7 -20 -4 -37 -3 -37 0 0 12 70 35 109 37 46 1 62 23 25
32 -14 4 -22 11 -19 16 3 5 13 7 23 4 14 -5 14 -4 3 4 -8 6 -29 8 -48 5 -27
-5 -33 -2 -33 12 0 13 -3 15 -13 6 -16 -12 -28 -5 -21 13 3 7 17 11 34 8 22
-3 27 -8 22 -21 -5 -15 -5 -15 10 0 10 10 15 25 11 38 -5 21 -27 28 -37 12 -7
-10 -56 9 -56 22 0 4 18 7 41 7 25 0 38 4 34 10 -4 6 -12 10 -18 9 -49 -6 -65
15 -18 24 25 5 28 9 23 34 -3 15 -7 22 -9 16 -3 -7 -13 -13 -23 -13 -9 0 -23
-7 -30 -15 -15 -18 -31 -20 -26 -2 1 6 1 9 -1 5 -8 -13 -31 -9 -36 6 -3 8 -1
17 6 20 7 2 2 4 -11 2 -32 -3 -51 -24 -33 -35 7 -5 11 -13 8 -18 -4 -6 4 -8
18 -5 21 4 27 -1 39 -29 18 -43 12 -56 -24 -51 -19 3 -30 0 -30 -8 0 -7 -7
-10 -16 -6 -10 4 -24 -2 -37 -16 -16 -18 -19 -19 -14 -5 4 10 7 25 7 33 0 9 5
12 10 9 6 -3 10 -1 10 4 0 6 -6 11 -14 11 -8 0 -21 9 -28 19 -8 11 -26 25 -41
32 -29 13 -38 36 -11 25 13 -5 15 -1 10 18 -4 16 -1 26 9 30 9 3 12 12 8 23
-5 15 -4 16 8 7 16 -13 68 -24 67 -15 -3 27 4 42 20 40 9 -1 26 -1 37 0 17 1
18 3 5 12 -11 8 -12 12 -2 16 14 6 16 33 2 33 -5 0 -10 -4 -10 -9 0 -13 -48
-18 -82 -9 -15 3 -30 3 -33 -2 -3 -5 -28 -16 -56 -25 -42 -14 -48 -19 -38 -32
8 -9 21 -12 36 -8 14 3 23 1 23 -6 0 -6 -9 -13 -20 -16 -11 -3 -20 -11 -20
-18 0 -7 -6 -16 -12 -19 -7 -3 -3 -3 10 0 21 5 22 4 10 -15 -12 -20 -40 -24
-63 -9 -6 4 -17 -2 -23 -13 -11 -18 -10 -19 12 -13 24 6 25 4 21 -26 -8 -67
-17 -91 -30 -86 -9 3 -12 -3 -10 -20 2 -19 -2 -24 -21 -24 -13 0 -24 -5 -24
-10 0 -6 12 -8 28 -5 22 5 24 4 10 -5 -26 -16 -22 -30 7 -30 14 0 25 -4 25 -9
0 -4 -11 -6 -25 -3 -14 2 -32 -1 -40 -8 -12 -10 -19 -10 -28 -1 -9 9 -9 14 2
20 14 9 9 43 -6 40 -14 -3 -43 13 -43 23 0 7 4 7 13 0 8 -7 19 -5 36 9 19 16
20 19 6 19 -17 0 -17 1 -2 18 21 23 22 36 3 29 -11 -4 -13 -1 -9 11 5 14 3 15
-8 5 -21 -20 -34 -15 -16 5 10 10 17 23 17 29 0 6 6 14 13 16 9 4 8 6 -2 6
-12 1 -11 4 2 19 10 11 13 27 10 45 -5 25 -23 39 -23 17 0 -5 -7 -10 -16 -10
-14 0 -14 2 0 15 8 8 25 19 38 24 31 13 -2 14 -35 2 -18 -7 -26 -19 -31 -51
-6 -36 -10 -41 -27 -37 -16 4 -18 3 -8 -9 9 -11 8 -14 -3 -14 -8 0 -15 -6 -15
-14 0 -8 8 -11 19 -8 15 4 13 -1 -9 -25 -51 -54 -69 -78 -76 -95 -3 -10 -15
-18 -25 -18 -11 0 -18 -8 -19 -21 -2 -16 2 -19 15 -14 27 10 2 -9 -50 -39 -27
-15 -48 -25 -48 -22 0 13 28 67 62 119 21 32 38 62 38 66 0 4 9 16 20 26 11
10 20 27 20 38 0 13 5 17 14 14 10 -4 18 2 22 16 4 12 20 41 36 65 21 31 36
42 56 43 17 1 20 3 10 6 -10 2 -18 8 -18 12 0 16 58 61 79 61 17 0 22 4 17 16
-4 10 -2 13 6 7 17 -10 48 -11 53 -2 3 4 -7 10 -23 14 l-27 7 24 19 c13 10 34
19 46 19 16 0 22 5 21 18 -4 23 -30 27 -49 7z m146 -182 c3 -5 -10 -9 -29 -10
-20 -1 -32 2 -29 8 7 11 52 12 58 2z m-13 -198 c-7 -8 -16 -15 -21 -15 -5 0
-6 7 -3 15 4 8 13 15 21 15 13 0 13 -3 3 -15z m-67 -19 c9 9 48 -6 42 -17 -10
-15 -52 -6 -66 16 -11 17 -10 18 3 8 8 -7 17 -10 21 -7z m62 -46 c-3 -5 -13
-10 -21 -10 -8 0 -14 5 -14 10 0 6 9 10 21 10 11 0 17 -4 14 -10z m75 0 c0 -5
-16 -17 -36 -25 -44 -18 -47 -18 -42 -4 2 7 19 17 38 24 19 7 36 13 38 14 1 0
2 -3 2 -9z m-380 -15 c0 -8 -7 -15 -15 -15 -16 0 -20 12 -8 23 11 12 23 8 23
-8z m555 -15 c-3 -5 -10 -10 -16 -10 -5 0 -9 5 -9 10 0 6 7 10 16 10 8 0 12
-4 9 -10z m-682 -80 c-6 -23 -31 -46 -40 -36 -3 3 -1 17 5 31 14 30 43 35 35
5z m252 -23 c13 -29 -3 -66 -31 -73 -16 -4 -20 -11 -17 -25 3 -10 10 -19 16
-19 6 0 1 -7 -11 -16 -28 -20 -28 -44 1 -45 l22 -2 -23 -4 c-12 -2 -27 -13
-32 -24 -9 -16 -7 -19 12 -19 23 -1 23 -1 3 -16 -11 -8 -19 -22 -17 -30 2 -9
-7 -24 -19 -35 l-22 -19 21 0 c12 0 22 -4 22 -10 0 -5 -6 -10 -14 -10 -21 0
-31 -21 -15 -31 11 -7 10 -9 -3 -9 -21 0 -25 -40 -5 -41 6 0 2 -4 -11 -10 -13
-5 -20 -13 -17 -19 7 -11 -22 -26 -31 -17 -6 6 9 60 31 112 15 36 49 197 50
242 1 18 4 36 8 39 4 4 7 19 7 33 0 31 8 44 35 59 27 15 29 15 40 -11z m453
-5 c-10 -2 -18 -7 -18 -12 0 -5 -7 -7 -15 -4 -14 6 -13 8 2 19 9 7 24 10 33 7
13 -5 12 -7 -2 -10z m-818 -52 c0 -5 -4 -10 -10 -10 -5 0 -10 5 -10 10 0 6 5
10 10 10 6 0 10 -4 10 -10z m230 -10 c0 -5 -2 -10 -4 -10 -3 0 -8 5 -11 10 -3
6 -1 10 4 10 6 0 11 -4 11 -10z m-20 -14 c0 -3 -4 -8 -10 -11 -5 -3 -10 -1
-10 4 0 6 5 11 10 11 6 0 10 -2 10 -4z m147 -12 c-3 -3 -12 -4 -19 -1 -8 3 -5
6 6 6 11 1 17 -2 13 -5z m213 -44 c0 -5 -2 -10 -4 -10 -3 0 -8 5 -11 10 -3 6
-1 10 4 10 6 0 11 -4 11 -10z m-508 -23 c-6 -7 -12 -21 -15 -32 -3 -14 -5 -10
-6 11 -1 33 6 47 21 38 5 -4 5 -10 0 -17z m-375 -42 c9 -24 -1 -27 -15 -5 -8
13 -8 20 -2 20 6 0 13 -7 17 -15z m908 -5 c3 -5 2 -10 -4 -10 -5 0 -13 5 -16
10 -3 6 -2 10 4 10 5 0 13 -4 16 -10z m-685 -4 c0 -3 -4 -8 -10 -11 -5 -3 -10
-1 -10 4 0 6 5 11 10 11 6 0 10 -2 10 -4z m620 -7 c0 -11 -27 -12 -34 -1 -2 4
4 9 15 9 10 1 19 -2 19 -8z m-780 -9 c0 -5 -4 -10 -10 -10 -5 0 -10 5 -10 10
0 6 5 10 10 10 6 0 10 -4 10 -10z m305 0 c3 -5 1 -10 -4 -10 -6 0 -11 5 -11
10 0 6 2 10 4 10 3 0 8 -4 11 -10z m-285 -106 c0 -2 -9 -4 -21 -4 -11 0 -18 4
-14 10 5 8 35 3 35 -6z m785 -24 c-3 -5 -15 -10 -26 -10 -11 0 -17 5 -14 10 3
6 15 10 26 10 11 0 17 -4 14 -10z m125 -5 c0 -5 -9 -10 -20 -10 -11 0 -19 -4
-18 -10 0 -5 9 -9 18 -7 9 1 23 -4 30 -13 10 -12 9 -16 -3 -21 -9 -3 -21 -3
-26 1 -6 3 -13 -6 -17 -20 -3 -14 -10 -25 -15 -25 -5 0 -6 7 -3 15 9 23 -12
18 -28 -7 -9 -13 -19 -18 -27 -14 -9 6 -9 11 -1 21 6 7 9 19 8 26 -2 8 7 15
20 17 15 2 22 10 22 27 0 14 7 25 18 28 25 7 43 3 42 -8z m-80 -15 c0 -5 -5
-10 -11 -10 -5 0 -7 5 -4 10 3 6 8 10 11 10 2 0 4 -4 4 -10z m120 0 c0 -5 -8
-10 -17 -10 -15 0 -16 2 -3 10 19 12 20 12 20 0z m-1165 -10 c-3 -5 -10 -10
-16 -10 -5 0 -9 5 -9 10 0 6 7 10 16 10 8 0 12 -4 9 -10z m975 -10 c0 -5 -5
-10 -11 -10 -5 0 -7 5 -4 10 3 6 8 10 11 10 2 0 4 -4 4 -10z m-123 -6 c-3 -3
-12 -4 -19 -1 -8 3 -5 6 6 6 11 1 17 -2 13 -5z m153 -23 c0 -5 -8 -11 -17 -15
-10 -3 -24 -9 -30 -12 -8 -3 -13 1 -13 9 0 14 9 18 53 26 4 0 7 -3 7 -8z
m-130 -51 c0 -5 -5 -10 -11 -10 -5 0 -7 5 -4 10 3 6 8 10 11 10 2 0 4 -4 4
-10z m260 1 c0 -5 9 -13 20 -16 11 -4 18 -11 14 -16 -3 -6 -11 -6 -17 -2 -7 5
-27 8 -44 8 -37 -1 -38 0 -20 20 14 16 47 20 47 6z m-485 -21 c3 -5 1 -17 -4
-27 -5 -10 -12 -26 -15 -36 -10 -33 -25 -9 -16 25 5 17 7 35 4 39 -3 5 2 9 10
9 8 0 17 -4 21 -10z m395 -10 c-11 -8 -12 -12 -3 -18 18 -12 1 -27 -32 -28
-16 0 -38 -4 -47 -8 -14 -6 -18 -3 -18 13 0 13 5 19 14 15 8 -3 16 3 19 15 4
17 13 21 44 21 28 0 34 -3 23 -10z m-990 -30 c0 -5 -5 -10 -11 -10 -5 0 -7 5
-4 10 3 6 8 10 11 10 2 0 4 -4 4 -10z m790 0 c0 -5 -7 -10 -16 -10 -8 0 -12 5
-9 10 3 6 10 10 16 10 5 0 9 -4 9 -10z m304 -2 c-15 -7 -28 -7 -40 1 -16 9
-12 10 21 10 35 0 37 -2 19 -11z m-1165 -64 c2 -2 2 -7 -1 -10 -4 -3 -19 2
-35 10 l-28 16 30 -6 c17 -4 32 -8 34 -10z m81 2 c0 -8 6 -16 12 -18 7 -3 2
-7 -10 -10 -15 -4 -22 -2 -22 7 0 8 -8 19 -17 24 -15 9 -14 10 10 11 17 0 27
-5 27 -14z m552 2 c8 -20 -2 -38 -19 -38 -10 0 -13 6 -9 16 3 9 6 20 6 25 0
13 17 11 22 -3z m542 -29 c-7 -11 -44 -12 -44 -1 0 15 11 20 30 15 11 -3 17
-9 14 -14z m-1244 -1 c0 -4 -13 -8 -30 -8 -16 0 -30 4 -30 8 0 5 14 9 30 9 17
0 30 -4 30 -9z m-135 -28 c-3 -5 -11 -10 -16 -10 -6 0 -7 5 -4 10 3 6 11 10
16 10 6 0 7 -4 4 -10z m-69 -35 c-3 -8 -2 -14 2 -14 20 3 42 -2 42 -10 0 -14
-44 -21 -52 -8 -4 7 -8 8 -8 4 0 -4 -6 -2 -13 5 -10 9 -11 16 -3 25 16 17 39
16 32 -2z m184 -5 c0 -5 -8 -10 -17 -11 -10 0 -13 -3 -6 -5 7 -3 9 -12 6 -20
-4 -12 -8 -12 -18 3 -9 13 -10 22 -3 30 12 15 38 17 38 3z m965 -1 c11 -17 -1
-21 -15 -4 -8 9 -8 15 -2 15 6 0 14 -5 17 -11z m-691 -14 c-6 -16 -24 -21 -24
-7 0 11 11 22 21 22 5 0 6 -7 3 -15z m406 -16 c0 -11 -4 -18 -10 -14 -5 3 -7
12 -3 20 7 21 13 19 13 -6z m245 -11 c-16 -4 -31 -5 -33 -3 -8 7 42 23 53 17
5 -3 -4 -9 -20 -14z m-990 2 c15 -6 11 -8 -17 -7 -21 1 -38 5 -38 10 0 9 29 8
55 -3z m945 0 c0 -5 -7 -10 -16 -10 -8 0 -12 5 -9 10 3 6 10 10 16 10 5 0 9
-4 9 -10z m-211 -47 c-7 -10 -15 -20 -16 -22 -2 -2 -3 5 -3 17 0 14 6 22 16
22 14 0 15 -3 3 -17z m-812 -19 c-3 -3 -12 -4 -19 -1 -8 3 -5 6 6 6 11 1 17
-2 13 -5z m50 -10 c-3 -3 -12 -4 -19 -1 -8 3 -5 6 6 6 11 1 17 -2 13 -5z m137
-9 c10 -7 15 -18 12 -24 -4 -6 -14 -3 -26 9 -32 32 -22 42 14 15z m-254 -6 c0
-5 -9 -9 -19 -9 -11 0 -22 4 -25 9 -3 5 6 9 19 9 14 0 25 -4 25 -9z m1573 -1
c15 1 27 -3 27 -8 0 -4 3 -16 7 -26 5 -15 2 -16 -33 -10 -65 12 -74 16 -74 38
0 17 4 19 23 13 12 -4 34 -7 50 -7z m-203 -13 c-7 -8 -19 -15 -27 -15 -13 0
-13 3 -3 15 7 8 19 15 27 15 13 0 13 -3 3 -15z m110 0 c0 -9 -9 -15 -25 -15
-29 0 -34 16 -7 23 30 8 32 7 32 -8z m-623 -17 c-3 -8 -6 -5 -6 6 -1 11 2 17
5 13 3 -3 4 -12 1 -19z m273 12 c0 -5 -4 -10 -10 -10 -5 0 -10 5 -10 10 0 6 5
10 10 10 6 0 10 -4 10 -10z m-1017 -7 c-7 -2 -19 -2 -25 0 -7 3 -2 5 12 5 14
0 19 -2 13 -5z m237 -15 c0 -18 -2 -20 -9 -9 -8 12 -11 9 -16 -12 -6 -20 -13
-27 -33 -27 l-25 0 22 19 c20 18 21 20 4 24 -14 4 -13 5 5 6 12 0 22 6 22 11
0 6 7 10 15 10 9 0 15 -9 15 -22z m-200 2 c0 -5 -5 -10 -11 -10 -5 0 -7 5 -4
10 3 6 8 10 11 10 2 0 4 -4 4 -10z m30 0 c0 -5 -4 -10 -10 -10 -5 0 -10 5 -10
10 0 6 5 10 10 10 6 0 10 -4 10 -10z m1220 0 c0 -5 -5 -10 -11 -10 -5 0 -7 5
-4 10 3 6 8 10 11 10 2 0 4 -4 4 -10z m-1340 -4 c0 -3 -4 -8 -10 -11 -5 -3
-10 -1 -10 4 0 6 5 11 10 11 6 0 10 -2 10 -4z m1330 -26 c0 -5 -2 -10 -4 -10
-3 0 -8 5 -11 10 -3 6 -1 10 4 10 6 0 11 -4 11 -10z m176 -25 c-3 -9 0 -15 10
-15 8 0 12 -5 8 -11 -3 -6 -15 -9 -25 -6 -10 3 -22 1 -25 -4 -3 -5 -11 -9 -17
-8 -9 0 -9 2 1 6 17 7 15 23 -4 23 -8 0 -12 5 -9 10 4 6 11 8 16 5 5 -4 17 -1
26 4 24 14 26 13 19 -4z m-1546 -5 c12 -8 11 -10 -7 -10 -13 0 -23 5 -23 10 0
13 11 13 30 0z m90 0 c0 -5 -5 -10 -11 -10 -5 0 -7 5 -4 10 3 6 8 10 11 10 2
0 4 -4 4 -10z m320 -22 c0 -6 -14 -8 -34 -5 -19 3 -37 1 -40 -4 -2 -5 -3 -4
-2 3 5 24 76 30 76 6z m1240 13 c0 -5 -6 -12 -12 -14 -10 -4 -9 -8 2 -16 8 -5
11 -13 7 -18 -5 -4 -11 -3 -15 3 -4 6 -15 13 -24 17 -10 3 -18 11 -18 16 0 8
10 12 53 20 4 0 7 -3 7 -8z m-1236 -49 c2 -4 -4 -8 -14 -9 -11 -1 -22 2 -25 8
-4 5 3 9 14 9 11 0 22 -4 25 -8z m56 -32 c0 -5 -5 -10 -11 -10 -5 0 -7 5 -4
10 3 6 8 10 11 10 2 0 4 -4 4 -10z m-325 -10 c3 -5 1 -10 -4 -10 -6 0 -11 5
-11 10 0 6 2 10 4 10 3 0 8 -4 11 -10z m745 0 c0 -5 -4 -10 -10 -10 -5 0 -10
5 -10 10 0 6 5 10 10 10 6 0 10 -4 10 -10z m-744 -69 c-3 -5 1 -12 10 -15 8
-3 12 -10 9 -16 -9 -14 -45 6 -45 25 0 8 7 15 16 15 8 0 13 -4 10 -9z m381 -7
c-3 -3 -12 -4 -19 -1 -8 3 -5 6 6 6 11 1 17 -2 13 -5z m53 -4 c0 -5 -6 -10
-14 -10 -8 0 -18 5 -21 10 -3 6 3 10 14 10 12 0 21 -4 21 -10z m-213 -22 c-3
-8 -6 -5 -6 6 -1 11 2 17 5 13 3 -3 4 -12 1 -19z m-235 -30 c-7 -7 -12 -8 -12
-2 0 14 12 26 19 19 2 -3 -1 -11 -7 -17z m443 -6 c-3 -3 -11 0 -18 7 -9 10 -8
11 6 5 10 -3 15 -9 12 -12z m708 11 c-7 -2 -21 -2 -30 0 -10 3 -4 5 12 5 17 0
24 -2 18 -5z"/>
<path d="M3753 1760 c-13 -5 -23 -12 -23 -15 0 -10 27 -5 46 10 21 16 11 18
-23 5z"/>
<path d="M1730 1750 c0 -5 5 -10 11 -10 5 0 7 5 4 10 -3 6 -8 10 -11 10 -2 0
-4 -4 -4 -10z"/>
<path d="M3960 1756 c0 -2 7 -7 16 -10 8 -3 12 -2 9 4 -6 10 -25 14 -25 6z"/>
<path d="M1273 1725 c10 -7 27 -11 38 -8 26 7 20 12 -21 17 -30 3 -32 2 -17
-9z"/>
<path d="M3488 1733 c7 -3 16 -2 19 1 4 3 -2 6 -13 5 -11 0 -14 -3 -6 -6z"/>
<path d="M1166 1705 c-4 -14 -4 -30 -1 -35 4 -6 -5 -10 -19 -10 -13 0 -26 5
-28 11 -3 8 -9 6 -20 -5 -12 -12 -18 -13 -21 -3 -2 6 -8 -1 -12 -18 -4 -16
-18 -68 -31 -115 -13 -47 -30 -146 -39 -220 -9 -74 -23 -162 -31 -195 -11 -41
-17 -123 -20 -265 -3 -112 -7 -206 -9 -209 -15 -14 -2 -53 25 -73 17 -12 30
-26 30 -31 0 -5 13 -24 28 -41 22 -25 31 -30 39 -20 7 6 9 15 6 18 -4 3 -2 6
4 6 6 0 16 -7 23 -15 10 -12 9 -16 -4 -21 -9 -4 -23 -19 -31 -34 -18 -34 -72
-55 -121 -46 -36 7 -41 15 -23 33 17 17 1 34 -26 27 -17 -4 -25 -1 -29 14 -4
11 -14 26 -23 34 -14 12 -16 10 -11 -17 4 -16 2 -38 -3 -47 -10 -19 14 -38 50
-38 12 0 21 -4 21 -10 0 -5 11 -10 25 -10 28 0 44 -25 27 -42 -8 -8 -15 -8
-26 1 -8 7 -54 14 -105 16 -49 2 -94 5 -98 8 -4 2 -39 1 -77 -3 -61 -7 -133
-7 -161 0 -23 5 -35 -1 -35 -18 0 -20 27 -36 98 -57 24 -8 52 -21 63 -31 18
-16 18 -17 -6 -46 -43 -51 -30 -117 26 -137 26 -9 31 -15 27 -36 l-5 -25 573
0 c401 1 574 4 574 12 0 6 11 8 25 6 17 -4 25 -1 25 9 0 8 -8 13 -17 12 -10
-2 -41 1 -69 5 -43 6 -56 14 -83 47 -20 24 -47 43 -72 50 -21 7 -39 16 -39 21
0 4 -11 8 -24 8 -14 0 -31 7 -40 15 -8 8 -19 15 -25 15 -5 0 -9 14 -9 32 l1
31 20 -24 20 -24 -7 28 c-4 16 -2 27 4 27 5 0 10 -4 10 -10 0 -5 4 -10 10 -10
5 0 7 7 4 15 -4 8 -15 15 -25 15 -10 0 -19 7 -19 15 0 9 -6 12 -15 9 -9 -4
-15 0 -15 10 0 10 9 16 25 16 17 0 25 6 25 17 0 13 -3 14 -12 5 -18 -18 -51
-15 -44 3 3 9 0 15 -9 15 -18 0 -36 32 -26 48 4 8 15 10 26 6 14 -6 17 -4 13
8 -8 19 31 39 61 31 16 -4 21 -1 21 13 0 14 3 15 12 6 21 -21 40 -14 21 7 -9
11 -21 17 -27 13 -19 -11 -40 -11 -54 0 -10 9 -15 9 -21 0 -5 -9 -14 -6 -30 9
-17 16 -26 18 -34 10 -14 -14 -37 -14 -37 -1 0 6 7 10 15 10 24 0 28 26 9 48
l-17 20 -17 -21 c-15 -18 -20 -19 -34 -8 -20 17 -21 41 -1 41 8 0 15 7 15 16
0 8 -5 12 -11 8 -7 -4 -9 0 -6 12 3 11 8 34 12 52 4 18 15 37 26 42 10 6 19
18 19 26 0 20 24 44 44 44 19 0 30 -17 16 -25 -6 -4 -7 -12 -3 -18 4 -8 1 -7
-9 1 -20 16 -37 -3 -19 -21 16 -16 14 -27 -4 -21 -29 11 -37 -8 -8 -23 18 -9
29 -11 31 -4 2 6 13 9 25 5 21 -5 22 -2 22 56 0 44 -3 60 -14 60 -10 0 -10 6
4 26 21 32 6 47 -37 38 -23 -5 -28 -2 -28 15 0 15 -9 22 -34 27 -19 3 -41 4
-48 1 -7 -2 -21 0 -30 5 -21 10 -24 2 -5 -15 13 -13 67 -17 67 -4 0 4 5 7 11
7 7 0 8 -7 4 -17 -18 -44 -17 -49 16 -51 37 -3 74 -20 49 -23 -8 -1 -21 -1
-27 0 -7 1 -13 -3 -13 -10 0 -6 -14 -24 -31 -40 -17 -16 -29 -23 -26 -16 4 10
-2 13 -19 9 -17 -3 -24 0 -24 12 0 9 9 17 20 17 39 3 43 4 48 17 2 7 -7 12
-25 13 -23 0 -25 2 -9 8 18 7 18 8 3 14 -26 10 -49 -3 -44 -24 3 -11 1 -19 -4
-19 -5 0 -9 5 -9 11 0 8 -5 7 -15 -1 -12 -10 -13 -15 -3 -21 6 -4 16 -5 20 -3
4 3 8 1 8 -4 0 -5 -9 -12 -21 -15 -12 -3 -18 -10 -14 -16 3 -6 -2 -14 -11 -18
-16 -6 -16 -7 2 -14 17 -6 16 -8 -8 -18 -16 -6 -28 -15 -28 -21 0 -13 16 -13
40 0 17 9 17 8 5 -18 -18 -36 -22 -57 -11 -59 27 -5 33 -49 8 -55 -15 -4 -18
-15 -17 -62 1 -31 -2 -59 -6 -61 -4 -3 -7 35 -8 85 -1 98 -8 131 -22 108 -5
-7 -9 -24 -10 -38 -2 -40 -19 55 -25 147 -4 46 -10 81 -14 78 -4 -3 -10 4 -13
15 -6 22 8 37 16 18 3 -7 6 -1 6 15 1 18 -4 27 -14 27 -8 0 -15 5 -15 11 0 6
7 9 15 5 10 -4 15 1 15 15 0 15 -5 19 -15 15 -10 -4 -15 1 -15 14 0 14 7 20
21 20 19 0 21 4 15 38 -3 20 -6 42 -6 49 0 7 -7 10 -15 7 -20 -8 -20 41 0 76
17 30 19 44 5 35 -5 -3 -10 3 -10 15 0 12 4 19 9 16 5 -3 11 1 15 9 3 8 15 15
26 15 11 0 20 5 20 10 0 6 9 10 19 10 25 0 35 28 16 46 -13 13 -18 13 -35 1
-11 -7 -17 -17 -14 -20 4 -3 3 -14 0 -24 -7 -16 -9 -15 -21 7 -7 14 -10 29 -5
35 4 5 10 66 13 135 4 69 9 140 13 158 6 28 4 32 -15 32 -29 0 -27 18 3 30 21
7 24 14 21 41 -6 42 -11 46 -19 14z m-41 -85 c-3 -5 -10 -10 -16 -10 -5 0 -9
5 -9 10 0 6 7 10 16 10 8 0 12 -4 9 -10z m5 -94 c0 -3 -4 -8 -10 -11 -5 -3
-10 -1 -10 4 0 6 5 11 10 11 6 0 10 -2 10 -4z m90 -256 c0 -5 -7 -7 -15 -4 -8
4 -15 8 -15 10 0 2 7 4 15 4 8 0 15 -4 15 -10z m-103 -262 c-3 -7 -5 -2 -5 12
0 14 2 19 5 13 2 -7 2 -19 0 -25z m333 -148 c0 -5 -4 -10 -9 -10 -6 0 -13 5
-16 10 -3 6 1 10 9 10 9 0 16 -4 16 -10z m-152 -107 c-10 -2 -26 -2 -35 0 -10
3 -2 5 17 5 19 0 27 -2 18 -5z m-23 -33 c3 -5 1 -10 -4 -10 -6 0 -11 5 -11 10
0 6 2 10 4 10 3 0 8 -4 11 -10z m53 -229 c-2 -36 0 -47 10 -44 8 4 10 0 6 -12
-6 -14 -3 -16 14 -10 13 4 22 2 22 -4 0 -10 -14 -15 -32 -12 -5 0 -8 -6 -8
-14 0 -17 -16 -20 -25 -5 -4 6 -11 8 -16 5 -16 -10 -10 7 7 20 14 10 14 15 4
34 -6 13 -10 31 -7 42 3 10 0 20 -6 22 -15 5 1 27 20 27 12 0 14 -10 11 -49z
m-151 7 c-3 -8 -6 -5 -6 6 -1 11 2 17 5 13 3 -3 4 -12 1 -19z m233 -28 c12
-23 13 -22 -21 -24 -21 -2 -26 3 -26 21 0 29 32 31 47 3z m-270 -56 c0 -16
-28 -26 -33 -11 -2 6 -1 22 1 36 5 23 6 23 18 6 8 -10 14 -24 14 -31z m68 -43
c-15 -5 -19 4 -11 24 6 18 7 18 13 -1 4 -10 3 -21 -2 -23z m127 -21 c-3 -5
-13 -10 -21 -10 -8 0 -14 5 -14 10 0 6 9 10 21 10 11 0 17 -4 14 -10z m29
-191 c17 -13 26 -30 26 -48 0 -26 -2 -27 -55 -29 -46 -1 -55 2 -55 16 0 10 5
23 12 30 9 9 8 12 -7 12 -18 1 -18 2 4 20 29 25 42 25 75 -1z m121 -44 c37
-36 33 -78 -5 -68 -28 7 -65 73 -48 84 20 13 27 11 53 -16z"/>
<path d="M3804 1721 c4 -5 0 -11 -6 -14 -7 -2 -10 -7 -7 -11 10 -10 39 5 39
20 0 8 -7 14 -16 14 -8 0 -13 -4 -10 -9z"/>
<path d="M1100 1700 c-12 -8 -11 -10 7 -10 12 0 25 5 28 10 8 13 -15 13 -35 0z"/>
<path d="M1225 1687 c-12 -34 -12 -51 -2 -64 6 -9 5 -13 -2 -13 -7 0 -11 -6
-10 -12 1 -7 -3 -26 -9 -41 -7 -16 -9 -39 -6 -53 3 -13 1 -30 -5 -38 -10 -11
-7 -14 12 -12 19 1 22 5 19 26 -5 23 -4 24 12 11 12 -10 20 -11 27 -4 8 8 5
14 -9 22 -32 17 -18 80 21 94 9 3 17 14 17 24 0 14 -2 15 -9 4 -5 -7 -15 -11
-22 -9 -9 3 -7 10 9 26 20 20 20 22 4 31 -16 10 -15 10 2 11 24 0 18 5 -15 13
-22 6 -28 3 -34 -16z"/>
<path d="M3095 1700 c3 -5 8 -10 11 -10 2 0 4 5 4 10 0 6 -5 10 -11 10 -5 0
-7 -4 -4 -10z"/>
<path d="M3180 1700 c0 -5 5 -10 10 -10 6 0 10 5 10 10 0 6 -4 10 -10 10 -5 0
-10 -4 -10 -10z"/>
<path d="M3212 1699 c2 -7 10 -15 17 -17 8 -3 12 1 9 9 -2 7 -10 15 -17 17 -8
3 -12 -1 -9 -9z"/>
<path d="M3367 1699 c6 -6 9 -19 6 -28 -4 -14 -3 -14 6 -1 16 22 13 40 -6 40
-13 0 -14 -3 -6 -11z"/>
<path d="M3458 1703 c7 -3 16 -2 19 1 4 3 -2 6 -13 5 -11 0 -14 -3 -6 -6z"/>
<path d="M2565 1680 c-3 -5 -1 -10 4 -10 6 0 11 5 11 10 0 6 -2 10 -4 10 -3 0
-8 -4 -11 -10z"/>
<path d="M3134 1676 c-10 -8 -16 -17 -13 -20 10 -10 39 5 39 20 0 17 -2 17
-26 0z"/>
<path d="M1565 1670 c-3 -5 -1 -10 4 -10 6 0 11 5 11 10 0 6 -2 10 -4 10 -3 0
-8 -4 -11 -10z"/>
<path d="M3080 1670 c0 -5 5 -10 10 -10 6 0 10 5 10 10 0 6 -4 10 -10 10 -5 0
-10 -4 -10 -10z"/>
<path d="M3878 1673 c-10 -2 -18 -8 -18 -13 0 -11 60 -7 61 5 0 12 -18 15 -43
8z"/>
<path d="M3826 1655 c4 -8 7 -15 9 -15 2 0 5 7 9 15 3 9 0 15 -9 15 -9 0 -12
-6 -9 -15z"/>
<path d="M2483 1653 c9 -2 23 -2 30 0 6 3 -1 5 -18 5 -16 0 -22 -2 -12 -5z"/>
<path d="M3740 1650 c0 -16 50 -24 63 -10 9 10 7 11 -10 6 -12 -4 -24 -2 -28
4 -8 13 -25 13 -25 0z"/>
<path d="M3650 1632 c0 -9 -7 -13 -18 -10 -14 4 -18 -1 -19 -26 -1 -17 1 -24
3 -16 3 9 18 21 35 27 26 10 30 10 25 -3 -3 -8 1 -14 9 -14 8 0 15 6 15 14 0
8 7 17 16 20 25 10 7 24 -31 23 -23 -1 -35 -6 -35 -15z"/>
<path d="M3240 1630 c0 -5 5 -10 11 -10 5 0 7 5 4 10 -3 6 -8 10 -11 10 -2 0
-4 -4 -4 -10z"/>
<path d="M3290 1620 c0 -5 5 -10 11 -10 5 0 7 5 4 10 -3 6 -8 10 -11 10 -2 0
-4 -4 -4 -10z"/>
<path d="M2710 1610 c0 -5 5 -10 10 -10 6 0 10 5 10 10 0 6 -4 10 -10 10 -5 0
-10 -4 -10 -10z"/>
<path d="M3435 1610 c3 -5 16 -10 28 -10 18 0 19 2 7 10 -20 13 -43 13 -35 0z"/>
<path d="M2900 1590 c0 -5 7 -10 15 -10 8 0 15 5 15 10 0 6 -7 10 -15 10 -8 0
-15 -4 -15 -10z"/>
<path d="M2600 1586 c0 -9 30 -14 35 -6 4 6 -3 10 -14 10 -12 0 -21 -2 -21 -4z"/>
<path d="M3565 1580 c-3 -5 -1 -10 4 -10 6 0 11 5 11 10 0 6 -2 10 -4 10 -3 0
-8 -4 -11 -10z"/>
<path d="M1277 1554 c3 -9 -2 -14 -16 -14 -12 0 -21 -4 -21 -10 0 -17 35 -11
47 9 10 15 9 20 -2 25 -9 3 -12 0 -8 -10z"/>
<path d="M1764 1551 c20 -22 36 -27 36 -13 0 5 -12 14 -27 21 -28 13 -28 13
-9 -8z"/>
<path d="M2430 1549 c0 -5 5 -7 10 -4 6 3 10 8 10 11 0 2 -4 4 -10 4 -5 0 -10
-5 -10 -11z"/>
<path d="M3288 1553 c6 -2 18 -2 25 0 6 3 1 5 -13 5 -14 0 -19 -2 -12 -5z"/>
<path d="M3635 1550 c-3 -5 -1 -10 4 -10 6 0 11 5 11 10 0 6 -2 10 -4 10 -3 0
-8 -4 -11 -10z"/>
<path d="M3120 1536 c0 -9 5 -16 10 -16 6 0 10 4 10 9 0 6 -4 13 -10 16 -5 3
-10 -1 -10 -9z"/>
<path d="M2868 1533 c7 -3 16 -2 19 1 4 3 -2 6 -13 5 -11 0 -14 -3 -6 -6z"/>
<path d="M3175 1530 c3 -5 11 -10 16 -10 6 0 7 5 4 10 -3 6 -11 10 -16 10 -6
0 -7 -4 -4 -10z"/>
<path d="M3590 1530 c0 -5 9 -14 19 -20 31 -16 36 -12 11 10 -26 23 -30 24
-30 10z"/>
<path d="M3650 1530 c-12 -8 -11 -10 8 -10 12 0 25 0 29 -1 4 0 9 4 11 10 5
14 -28 14 -48 1z"/>
<path d="M3210 1520 c0 -5 7 -10 15 -10 8 0 15 5 15 10 0 6 -7 10 -15 10 -8 0
-15 -4 -15 -10z"/>
<path d="M4057 1514 c-4 -4 -7 -14 -7 -23 0 -11 3 -12 11 -4 6 6 10 16 7 23
-2 6 -7 8 -11 4z"/>
<path d="M1800 1500 c0 -5 7 -10 16 -10 8 0 12 5 9 10 -3 6 -10 10 -16 10 -5
0 -9 -4 -9 -10z"/>
<path d="M2245 1490 c-3 -5 -1 -10 4 -10 6 0 11 5 11 10 0 6 -2 10 -4 10 -3 0
-8 -4 -11 -10z"/>
<path d="M4150 1495 c0 -4 6 -19 14 -33 8 -15 24 -48 37 -75 13 -26 26 -42 28
-36 3 11 -57 137 -71 145 -4 3 -8 2 -8 -1z"/>
<path d="M3220 1486 c0 -2 7 -7 16 -10 8 -3 12 -2 9 4 -6 10 -25 14 -25 6z"/>
<path d="M4093 1484 c4 -4 2 -13 -4 -21 -9 -10 -8 -13 4 -13 8 0 20 -7 27 -15
7 -8 17 -15 22 -15 5 0 2 7 -6 16 -9 8 -16 21 -16 29 0 7 -8 16 -17 19 -10 4
-14 4 -10 0z"/>
<path d="M2770 1470 c-8 -5 -12 -11 -9 -14 2 -3 11 -1 19 4 8 5 12 11 9 14 -2
3 -11 1 -19 -4z"/>
<path d="M1520 1440 c0 -5 7 -10 15 -10 8 0 15 5 15 10 0 6 -7 10 -15 10 -8 0
-15 -4 -15 -10z"/>
<path d="M3086 1434 c-10 -27 -7 -41 12 -40 26 1 31 -17 5 -19 -13 -1 -23 2
-23 7 0 11 -57 10 -64 -1 -6 -10 30 -22 83 -27 18 -2 39 -8 47 -15 11 -9 14
-8 14 5 0 9 7 16 16 16 8 0 12 5 9 10 -4 6 -15 8 -26 5 -11 -4 -19 -2 -19 4 0
11 13 15 38 12 6 -1 12 4 12 11 0 9 3 9 10 -2 8 -13 10 -12 10 3 0 9 -5 17
-11 17 -5 0 -8 4 -5 9 6 9 -40 21 -79 21 -13 0 -26 -7 -29 -16z m39 -14 c3 -5
-1 -10 -10 -10 -9 0 -13 5 -10 10 3 6 8 10 10 10 2 0 7 -4 10 -10z"/>
<path d="M3807 1444 c-10 -11 22 -36 38 -30 24 9 18 36 -8 36 -13 0 -26 -3
-30 -6z"/>
<path d="M1200 1420 c-13 -8 -13 -10 2 -10 9 0 20 5 23 10 8 13 -5 13 -25 0z"/>
<path d="M3873 1413 c-13 -9 -23 -22 -23 -29 0 -19 16 -18 24 1 3 8 12 15 21
15 8 0 15 4 15 9 0 18 -15 19 -37 4z"/>
<path d="M1345 1410 c3 -5 10 -10 16 -10 5 0 9 5 9 10 0 6 -7 10 -16 10 -8 0
-12 -4 -9 -10z"/>
<path d="M1770 1410 c0 -5 5 -10 11 -10 5 0 7 5 4 10 -3 6 -8 10 -11 10 -2 0
-4 -4 -4 -10z"/>
<path d="M2455 1410 c3 -5 8 -10 11 -10 2 0 4 5 4 10 0 6 -5 10 -11 10 -5 0
-7 -4 -4 -10z"/>
<path d="M1540 1400 c-9 -6 -10 -10 -3 -10 6 0 15 5 18 10 8 12 4 12 -15 0z"/>
<path d="M1187 1370 c3 -11 0 -20 -6 -20 -6 0 -11 -7 -11 -16 0 -11 5 -14 16
-10 9 3 18 6 20 6 2 0 4 7 4 16 0 8 3 13 8 10 4 -2 16 2 27 10 19 14 18 15
-12 9 -20 -3 -33 -1 -33 5 0 5 -4 10 -9 10 -5 0 -7 -9 -4 -20z"/>
<path d="M1360 1380 c-8 -5 -12 -12 -9 -15 4 -3 12 1 19 10 14 17 11 19 -10 5z"/>
<path d="M2986 1355 c-10 -26 -7 -47 6 -43 14 5 19 31 8 47 -5 9 -9 8 -14 -4z"/>
<path d="M3225 1360 c-3 -5 -1 -10 4 -10 6 0 11 5 11 10 0 6 -2 10 -4 10 -3 0
-8 -4 -11 -10z"/>
<path d="M1930 1350 c0 -5 5 -10 10 -10 6 0 10 5 10 10 0 6 -4 10 -10 10 -5 0
-10 -4 -10 -10z"/>
<path d="M1710 1330 c-6 -11 -20 -20 -30 -20 -11 0 -20 -4 -20 -10 0 -10 88
-5 98 5 3 3 -4 14 -16 25 -21 20 -21 20 -32 0z"/>
<path d="M1768 1343 c7 -3 16 -2 19 1 4 3 -2 6 -13 5 -11 0 -14 -3 -6 -6z"/>
<path d="M1800 1330 c0 -5 5 -10 10 -10 15 0 12 -16 -5 -34 -21 -20 -19 -28 7
-24 22 3 39 40 30 66 -5 14 -42 16 -42 2z"/>
<path d="M1510 1321 c0 -9 22 -31 32 -31 4 0 5 8 1 18 -5 14 -3 15 8 5 18 -17
34 -16 20 1 -11 14 -61 19 -61 7z"/>
<path d="M1610 1310 c-13 -8 -13 -10 2 -10 9 0 20 5 23 10 8 13 -5 13 -25 0z"/>
<path d="M3020 1308 c0 -5 5 -8 11 -8 5 0 7 -5 4 -10 -4 -6 -12 -7 -18 -3 -7
4 -6 0 2 -10 12 -15 11 -17 -4 -17 -14 0 -15 -3 -6 -14 12 -14 -1 -32 -16 -23
-5 3 -16 -4 -26 -13 -13 -13 -15 -20 -7 -25 7 -4 15 -3 19 2 9 15 55 38 46 24
-4 -7 -1 -18 5 -26 15 -18 5 -35 -23 -36 -21 0 -21 -1 -2 -9 34 -15 70 -11 88
10 14 17 14 20 2 20 -20 0 -19 10 1 25 15 11 15 12 -4 10 -12 -1 -25 -4 -28
-8 -13 -13 -22 -7 -26 18 -4 18 -1 24 11 23 37 -3 51 3 51 20 0 10 -3 22 -7
26 -5 4 -8 12 -8 18 0 6 -15 12 -33 12 -17 1 -32 -2 -32 -6z"/>
<path d="M2950 1290 c-13 -8 -12 -10 3 -10 9 0 17 5 17 10 0 12 -1 12 -20 0z"/>
<path d="M1287 1283 c-13 -12 -7 -26 6 -15 6 5 21 12 32 15 16 4 15 5 -6 6
-14 0 -29 -2 -32 -6z"/>
<path d="M1755 1260 c-3 -5 -15 -10 -26 -10 -10 0 -19 -4 -19 -10 0 -18 35
-11 48 10 7 11 10 20 8 20 -3 0 -8 -4 -11 -10z"/>
<path d="M3857 1264 c-8 -8 1 -24 14 -24 5 0 9 7 9 15 0 15 -12 20 -23 9z"/>
<path d="M2690 1250 c0 -5 5 -10 11 -10 5 0 7 5 4 10 -3 6 -8 10 -11 10 -2 0
-4 -4 -4 -10z"/>
<path d="M2950 1246 c0 -9 5 -16 10 -16 6 0 10 4 10 9 0 6 -4 13 -10 16 -5 3
-10 -1 -10 -9z"/>
<path d="M1507 1243 c-4 -3 -7 -12 -7 -19 0 -15 35 -7 51 12 9 11 7 14 -13 14
-14 0 -28 -3 -31 -7z"/>
<path d="M1790 1240 c0 -5 7 -7 15 -4 8 4 15 8 15 10 0 2 -7 4 -15 4 -8 0 -15
-4 -15 -10z"/>
<path d="M4120 1235 c0 -8 7 -15 15 -15 9 0 12 6 9 15 -4 8 -10 15 -15 15 -5
0 -9 -7 -9 -15z"/>
<path d="M1622 1228 c6 -18 25 -21 25 -3 0 8 -7 15 -14 15 -8 0 -13 -5 -11
-12z"/>
<path d="M1265 1210 c-4 -6 6 -10 24 -10 16 0 33 5 36 10 4 6 -6 10 -24 10
-16 0 -33 -4 -36 -10z"/>
<path d="M1698 1213 c-10 -2 -18 -9 -18 -13 0 -6 10 -6 24 0 15 5 27 5 35 -3
8 -8 11 -7 11 6 0 17 -16 20 -52 10z"/>
<path d="M1170 1200 c20 -13 40 -13 40 0 0 6 -12 10 -27 10 -22 0 -25 -2 -13
-10z"/>
<path d="M1360 1190 c0 -5 4 -10 9 -10 6 0 13 5 16 10 3 6 -1 10 -9 10 -9 0
-16 -4 -16 -10z"/>
<path d="M3880 1191 c0 -5 7 -11 15 -15 8 -3 15 -1 15 3 0 5 -7 11 -15 15 -8
3 -15 1 -15 -3z"/>
<path d="M1180 1151 c-19 -28 -16 -47 6 -33 11 7 28 62 20 62 -3 0 -14 -13
-26 -29z"/>
<path d="M1878 1163 c-19 -5 -25 -25 -20 -70 4 -36 22 -46 22 -13 0 11 3 20 8
20 4 0 8 16 9 35 2 19 2 34 0 34 -1 -1 -10 -3 -19 -6z"/>
<path d="M2840 1160 c0 -5 7 -7 15 -4 8 4 15 8 15 10 0 2 -7 4 -15 4 -8 0 -15
-4 -15 -10z"/>
<path d="M3946 1155 c-9 -23 -8 -24 14 -18 12 3 19 10 17 16 -6 18 -24 19 -31
2z"/>
<path d="M1826 1151 c-4 -7 -5 -15 -2 -18 9 -9 19 4 14 18 -4 11 -6 11 -12 0z"/>
<path d="M1520 1130 c0 -5 5 -10 10 -10 6 0 10 5 10 10 0 6 -4 10 -10 10 -5 0
-10 -4 -10 -10z"/>
<path d="M1240 1120 c0 -5 5 -10 11 -10 5 0 7 5 4 10 -3 6 -8 10 -11 10 -2 0
-4 -4 -4 -10z"/>
<path d="M1565 1120 c-3 -5 1 -10 9 -10 9 0 16 -7 16 -15 0 -16 15 -20 24 -7
3 5 -4 16 -15 25 -22 20 -26 20 -34 7z"/>
<path d="M2765 1120 c4 -6 11 -8 16 -5 14 9 11 15 -7 15 -8 0 -12 -5 -9 -10z"/>
<path d="M2950 1120 c0 -5 15 -10 33 -10 24 0 28 3 17 10 -20 13 -50 13 -50 0z"/>
<path d="M4139 1117 c-19 -14 -21 -47 -3 -47 6 0 14 12 17 28 6 33 6 33 -14
19z"/>
<path d="M3020 1111 c0 -6 5 -13 10 -16 6 -3 10 1 10 9 0 9 -4 16 -10 16 -5 0
-10 -4 -10 -9z"/>
<path d="M3966 1111 c-3 -5 1 -11 9 -15 9 -3 15 0 15 9 0 16 -16 20 -24 6z"/>
<path d="M1405 1100 c-3 -5 1 -10 9 -10 8 0 18 5 21 10 3 6 -1 10 -9 10 -8 0
-18 -4 -21 -10z"/>
<path d="M3060 1101 c0 -8 52 -23 59 -16 1 2 0 8 -4 14 -8 13 -55 15 -55 2z"/>
<path d="M3930 1095 c0 -8 5 -15 10 -15 6 0 10 7 10 15 0 8 -4 15 -10 15 -5 0
-10 -7 -10 -15z"/>
<path d="M1224 1085 c-3 -8 -3 -19 1 -25 3 -5 1 -10 -6 -10 -18 0 -1 -13 21
-17 16 -2 20 3 20 26 0 31 -27 51 -36 26z"/>
<path d="M4008 1072 c4 -19 2 -23 -8 -17 -9 5 -11 4 -6 -4 6 -9 11 -9 21 -1 8
7 18 9 24 6 5 -3 12 1 15 9 4 11 13 14 32 9 20 -5 25 -3 22 6 -2 8 -23 14 -54
15 -49 2 -50 1 -46 -23z"/>
<path d="M4160 1096 c0 -8 31 -36 41 -36 5 0 9 5 9 10 0 6 -7 10 -15 10 -8 0
-15 5 -15 10 0 6 -4 10 -10 10 -5 0 -10 -2 -10 -4z"/>
<path d="M1170 1068 c0 -19 2 -20 10 -8 13 19 13 30 0 30 -5 0 -10 -10 -10
-22z"/>
<path d="M2978 1083 c7 -3 16 -2 19 1 4 3 -2 6 -13 5 -11 0 -14 -3 -6 -6z"/>
<path d="M1530 1065 c-10 -12 -10 -15 3 -15 8 0 18 -6 20 -12 3 -8 6 -6 6 5 1
9 7 17 14 17 8 0 7 4 -3 10 -20 13 -25 12 -40 -5z"/>
<path d="M2045 1070 c-3 -6 1 -7 9 -4 18 7 21 14 7 14 -6 0 -13 -4 -16 -10z"/>
<path d="M2870 1070 c0 -5 14 -7 33 -3 45 8 47 13 4 13 -20 0 -37 -4 -37 -10z"/>
<path d="M3066 1072 c-3 -6 1 -15 8 -21 8 -7 17 -8 20 -3 3 6 -1 15 -8 21 -8
7 -17 8 -20 3z"/>
<path d="M2080 1061 c0 -5 9 -11 20 -14 24 -6 27 8 4 17 -21 8 -24 8 -24 -3z"/>
<path d="M2965 1060 c3 -5 11 -10 16 -10 6 0 7 5 4 10 -3 6 -11 10 -16 10 -6
0 -7 -4 -4 -10z"/>
<path d="M1334 1051 c-2 -2 -4 -8 -4 -13 0 -13 57 -9 63 5 3 9 -5 13 -25 12
-16 0 -32 -2 -34 -4z"/>
<path d="M4055 1050 c-4 -7 3 -22 15 -35 22 -24 24 -55 4 -62 -6 -2 -14 6 -17
17 -5 19 -8 20 -29 8 l-23 -13 24 -3 c19 -3 21 -6 10 -13 -11 -7 -11 -9 -1 -9
8 0 10 -5 5 -12 -11 -18 -10 -52 2 -60 6 -5 5 -12 -3 -20 -16 -16 -15 -28 1
-28 7 0 13 -9 13 -20 0 -13 -7 -20 -20 -20 -16 0 -15 -4 11 -29 36 -34 48 -61
28 -61 -8 0 -15 -9 -15 -19 0 -14 8 -21 28 -23 19 -2 28 -9 30 -26 2 -14 9
-22 17 -19 13 6 35 -11 35 -26 0 -5 -7 -4 -15 3 -25 21 -41 -3 -21 -31 13 -19
16 -20 16 -6 0 9 4 17 8 17 9 0 37 -63 41 -90 0 -6 13 -16 29 -22 20 -8 23
-12 11 -15 -14 -3 -15 -8 -5 -28 6 -14 19 -25 28 -25 11 0 17 -8 16 -22 -2
-40 13 -84 33 -96 18 -12 19 -10 15 30 -7 74 -18 108 -33 108 -12 0 -13 3 -5
13 8 10 7 26 -3 61 -19 61 -63 156 -73 156 -4 0 -8 15 -7 33 0 17 -6 43 -12
57 -7 14 -13 33 -13 43 0 9 -7 17 -15 17 -21 0 -19 18 3 22 13 3 9 8 -16 21
-18 10 -30 22 -27 27 3 5 1 11 -4 14 -5 3 -6 20 -2 38 5 25 12 33 29 34 12 1
27 -5 33 -12 14 -17 39 -18 39 -1 0 6 3 22 6 35 6 21 4 22 -20 16 -24 -6 -26
-4 -26 25 0 25 4 31 23 32 21 0 21 1 2 9 -33 14 -55 12 -49 -5 4 -8 1 -15 -6
-15 -6 0 -9 -4 -6 -9 3 -5 -1 -11 -8 -14 -11 -4 -16 3 -18 25 -2 26 -8 32 -30
35 -14 2 -30 -1 -33 -7z m89 -100 c-10 -4 -21 -6 -24 -3 -8 7 24 22 34 16 5
-4 1 -10 -10 -13z m-39 -80 c11 -17 -3 -40 -20 -34 -21 8 -19 25 3 18 14 -5
14 -3 -2 10 -17 14 -17 16 -4 16 9 0 20 -5 23 -10z m62 -126 c-3 -4 -14 -3
-24 0 -15 6 -15 8 -3 16 16 10 39 -4 27 -16z"/>
<path d="M1424 1035 c10 -8 24 -11 29 -8 6 4 2 10 -9 14 -31 12 -40 9 -20 -6z"/>
<path d="M2257 1044 c-12 -12 3 -22 23 -17 11 3 17 9 14 14 -6 10 -28 12 -37
3z"/>
<path d="M3997 1019 c8 -8 16 -8 30 0 16 9 14 10 -11 11 -22 0 -27 -3 -19 -11z"/>
<path d="M1420 1006 c0 -9 5 -16 10 -16 6 0 10 4 10 9 0 6 -4 13 -10 16 -5 3
-10 -1 -10 -9z"/>
<path d="M1325 1000 c-3 -5 1 -10 9 -10 9 0 16 5 16 10 0 6 -4 10 -9 10 -6 0
-13 -4 -16 -10z"/>
<path d="M1975 990 c-3 -5 -1 -10 4 -10 6 0 11 5 11 10 0 6 -2 10 -4 10 -3 0
-8 -4 -11 -10z"/>
<path d="M1208 983 c-25 -6 -23 -22 2 -20 11 1 20 7 20 14 0 7 -1 12 -2 12 -2
-1 -11 -3 -20 -6z"/>
<path d="M2360 978 c-59 -71 -60 -73 -12 -100 35 -19 53 -22 129 -20 51 2 53
4 73 41 19 39 19 40 1 46 -11 3 -22 12 -25 20 -3 8 -15 15 -26 15 -12 0 -18
-4 -15 -10 4 -6 -10 -10 -33 -10 -26 0 -42 5 -46 15 -7 18 -31 20 -46 3z"/>
<path d="M1305 960 c3 -5 10 -10 16 -10 5 0 9 5 9 10 0 6 -7 10 -16 10 -8 0
-12 -4 -9 -10z"/>
<path d="M1405 957 c4 -8 2 -18 -4 -21 -15 -10 -2 -36 18 -36 10 0 26 7 37 15
27 21 32 19 27 -12 -3 -27 -3 -27 8 -6 7 12 8 30 4 40 -5 10 -7 21 -7 26 1 4
-2 7 -8 7 -5 0 -10 -4 -10 -9 0 -12 -41 -11 -58 2 -9 7 -11 6 -7 -6z"/>
<path d="M2808 953 c7 -3 16 -2 19 1 4 3 -2 6 -13 5 -11 0 -14 -3 -6 -6z"/>
<path d="M4230 940 c0 -5 5 -10 11 -10 5 0 7 5 4 10 -3 6 -8 10 -11 10 -2 0
-4 -4 -4 -10z"/>
<path d="M1190 925 c0 -8 5 -15 11 -15 6 0 8 -7 4 -17 -4 -12 -3 -14 3 -8 5 6
13 20 17 33 5 18 2 22 -14 22 -12 0 -21 -7 -21 -15z"/>
<path d="M2695 931 c-7 -12 -3 -14 42 -15 18 -1 32 4 30 9 -5 14 -64 18 -72 6z"/>
<path d="M4209 899 c-11 -6 -10 -9 4 -15 9 -3 17 -17 17 -29 0 -13 6 -30 13
-37 6 -7 13 -24 15 -37 3 -30 6 -34 24 -29 11 2 12 12 5 45 -6 31 -12 40 -22
36 -18 -6 -19 1 -3 27 10 15 10 22 0 32 -15 15 -36 18 -53 7z"/>
<path d="M2646 885 c-3 -8 -1 -15 4 -15 6 0 10 7 10 15 0 8 -2 15 -4 15 -2 0
-6 -7 -10 -15z"/>
<path d="M1298 873 c6 -2 18 -2 25 0 6 3 1 5 -13 5 -14 0 -19 -2 -12 -5z"/>
<path d="M1538 873 c6 -2 12 -11 12 -19 0 -8 5 -14 10 -14 6 0 10 -7 10 -15 0
-8 5 -15 10 -15 6 0 10 5 10 10 0 6 8 5 21 -2 17 -11 22 -10 35 7 8 10 13 24
11 29 -4 12 -28 21 -26 9 1 -4 1 -15 0 -23 -1 -12 -4 -12 -12 3 -5 9 -7 22 -4
27 4 6 -12 10 -42 9 -26 0 -42 -3 -35 -6z"/>
<path d="M2545 850 c-3 -5 -1 -10 4 -10 6 0 11 5 11 10 0 6 -2 10 -4 10 -3 0
-8 -4 -11 -10z"/>
<path d="M2635 851 c-3 -5 -1 -12 5 -16 5 -3 10 1 10 9 0 18 -6 21 -15 7z"/>
<path d="M1490 813 c0 -5 4 -13 8 -20 6 -9 11 -7 20 7 11 17 10 20 -8 20 -11
0 -20 -3 -20 -7z"/>
<path d="M1910 811 c0 -6 7 -14 16 -19 25 -14 13 -46 -18 -50 -20 -2 -25 -7
-21 -23 6 -21 6 -21 43 -24 14 -2 30 -4 36 -6 11 -4 14 0 14 19 0 4 -17 7 -37
5 -21 -1 -30 0 -20 3 9 3 17 12 17 19 0 8 10 21 22 29 19 14 19 30 0 31 -4 1
-17 6 -29 13 -13 7 -23 9 -23 3z"/>
<path d="M2586 784 c-4 -10 3 -18 23 -25 21 -7 28 -15 24 -26 -4 -11 -2 -14 8
-11 8 3 13 13 12 22 -1 13 4 16 18 13 10 -3 19 -1 19 4 0 9 -28 14 -62 11 -10
-1 -18 3 -18 9 0 5 5 7 10 4 6 -3 10 -1 10 4 0 17 -37 13 -44 -5z"/>
<path d="M2658 793 c7 -3 16 -2 19 1 4 3 -2 6 -13 5 -11 0 -14 -3 -6 -6z"/>
<path d="M2941 784 c0 -11 3 -14 6 -6 3 7 2 16 -1 19 -3 4 -6 -2 -5 -13z"/>
<path d="M1570 770 c0 -5 7 -10 16 -10 8 0 12 5 9 10 -3 6 -10 10 -16 10 -5 0
-9 -4 -9 -10z"/>
<path d="M1868 773 c7 -3 16 -2 19 1 4 3 -2 6 -13 5 -11 0 -14 -3 -6 -6z"/>
<path d="M1700 750 c0 -5 5 -10 11 -10 5 0 7 5 4 10 -3 6 -8 10 -11 10 -2 0
-4 -4 -4 -10z"/>
<path d="M1820 750 c0 -5 5 -10 10 -10 6 0 10 5 10 10 0 6 -4 10 -10 10 -5 0
-10 -4 -10 -10z"/>
<path d="M2530 750 c0 -5 7 -10 15 -10 8 0 15 5 15 10 0 6 -7 10 -15 10 -8 0
-15 -4 -15 -10z"/>
<path d="M1749 729 c-9 -18 -8 -20 12 -17 27 4 36 23 15 31 -10 4 -20 -2 -27
-14z"/>
<path d="M2600 741 c0 -5 5 -13 10 -16 6 -3 10 -2 10 4 0 5 -4 13 -10 16 -5 3
-10 2 -10 -4z"/>
<path d="M1555 730 c3 -5 8 -10 11 -10 2 0 4 5 4 10 0 6 -5 10 -11 10 -5 0 -7
-4 -4 -10z"/>
<path d="M2075 720 c3 -5 8 -10 11 -10 2 0 4 5 4 10 0 6 -5 10 -11 10 -5 0 -7
-4 -4 -10z"/>
<path d="M4030 710 c-8 -5 -11 -12 -7 -17 5 -4 11 -3 15 3 4 6 14 14 22 17 13
5 13 5 0 6 -8 0 -22 -3 -30 -9z"/>
<path d="M2208 703 c7 -3 16 -2 19 1 4 3 -2 6 -13 5 -11 0 -14 -3 -6 -6z"/>
<path d="M1535 680 c-3 -5 -1 -10 4 -10 6 0 11 5 11 10 0 6 -2 10 -4 10 -3 0
-8 -4 -11 -10z"/>
<path d="M2205 670 c-3 -5 1 -10 9 -10 8 0 18 5 21 10 3 6 -1 10 -9 10 -8 0
-18 -4 -21 -10z"/>
<path d="M1420 660 c19 -13 30 -13 30 0 0 6 -10 10 -22 10 -19 0 -20 -2 -8
-10z"/>
<path d="M1564 654 c5 -14 4 -15 -9 -4 -17 14 -49 6 -43 -12 3 -7 24 -13 51
-13 52 -1 51 -2 37 26 -13 24 -45 26 -36 3z"/>
<path d="M1764 649 c0 -10 6 -19 13 -19 7 0 13 4 13 9 0 5 -6 13 -13 19 -10 8
-13 6 -13 -9z"/>
<path d="M1911 653 c-1 -14 -7 -23 -17 -23 -8 0 -12 -4 -9 -10 9 -14 45 -12
44 3 0 6 -4 21 -9 32 -8 19 -9 19 -9 -2z"/>
<path d="M2318 663 c7 -3 16 -2 19 1 4 3 -2 6 -13 5 -11 0 -14 -3 -6 -6z"/>
<path d="M1366 643 c-9 -22 10 -32 59 -34 22 -1 32 -3 23 -6 -10 -2 -18 -8
-18 -13 0 -5 -8 -7 -17 -4 -11 4 -14 3 -7 -3 6 -4 16 -18 22 -29 9 -17 21 -22
52 -22 43 -1 53 14 18 27 -19 7 -19 8 -4 14 11 4 14 12 10 19 -5 7 -7 25 -5
40 3 33 -3 35 -31 8 -15 -14 -24 -17 -29 -9 -4 7 -17 9 -33 5 -20 -5 -24 -3
-20 9 4 8 2 15 -4 15 -5 0 -13 -8 -16 -17z"/>
<path d="M2047 631 c9 -11 23 -17 31 -14 12 5 12 8 -4 20 -28 21 -47 17 -27
-6z"/>
<path d="M2555 640 c3 -5 10 -10 16 -10 5 0 9 5 9 10 0 6 -7 10 -16 10 -8 0
-12 -4 -9 -10z"/>
<path d="M1730 630 c0 -5 5 -10 10 -10 6 0 10 5 10 10 0 6 -4 10 -10 10 -5 0
-10 -4 -10 -10z"/>
<path d="M2510 620 c0 -5 5 -10 10 -10 6 0 10 5 10 10 0 6 -4 10 -10 10 -5 0
-10 -4 -10 -10z"/>
<path d="M1674 609 c-3 -6 -1 -16 5 -22 8 -8 11 -7 11 5 0 9 6 19 13 21 7 3 6
6 -5 6 -9 1 -20 -4 -24 -10z"/>
<path d="M900 600 c0 -5 5 -10 11 -10 5 0 7 5 4 10 -3 6 -8 10 -11 10 -2 0 -4
-4 -4 -10z"/>
<path d="M2342 580 c-7 -11 -8 -20 -3 -20 9 0 24 30 18 36 -1 2 -8 -6 -15 -16z"/>
<path d="M2475 590 c-4 -6 6 -10 22 -10 22 0 25 2 13 10 -19 12 -27 12 -35 0z"/>
<path d="M1535 580 c4 -6 11 -8 16 -5 14 9 11 15 -7 15 -8 0 -12 -5 -9 -10z"/>
<path d="M2108 583 c7 -3 16 -2 19 1 4 3 -2 6 -13 5 -11 0 -14 -3 -6 -6z"/>
<path d="M2147 584 c-3 -4 1 -13 9 -22 12 -12 13 -17 3 -23 -17 -10 -6 -21 14
-14 15 6 16 16 2 48 -7 18 -17 22 -28 11z"/>
<path d="M4020 586 c0 -2 7 -7 16 -10 8 -3 12 -2 9 4 -6 10 -25 14 -25 6z"/>
<path d="M1610 550 c0 -5 5 -10 11 -10 5 0 7 5 4 10 -3 6 -8 10 -11 10 -2 0
-4 -4 -4 -10z"/>
<path d="M1686 538 c3 -4 12 -8 20 -8 8 0 14 4 14 8 0 4 -9 8 -19 8 -11 0 -17
-4 -15 -8z"/>
<path d="M1917 539 c7 -7 15 -10 18 -7 3 3 -2 9 -12 12 -14 6 -15 5 -6 -5z"/>
<path d="M2052 528 c5 -15 28 -18 29 -3 0 6 -7 12 -17 13 -10 3 -15 -1 -12
-10z"/>
<path d="M2120 531 c0 -5 5 -13 10 -16 6 -3 10 -2 10 4 0 5 -4 13 -10 16 -5 3
-10 2 -10 -4z"/>
<path d="M1859 507 c7 -7 14 -8 21 -1 6 6 2 10 -12 11 -16 2 -18 -1 -9 -10z"/>
<path d="M2005 499 c-11 -17 1 -21 15 -4 8 9 8 15 2 15 -6 0 -14 -5 -17 -11z"/>
<path d="M2240 500 c0 -5 5 -10 11 -10 5 0 7 5 4 10 -3 6 -8 10 -11 10 -2 0
-4 -4 -4 -10z"/>
<path d="M4135 490 c-18 -8 -17 -9 8 -9 16 -1 26 3 22 9 -3 6 -7 10 -8 9 -1 0
-11 -4 -22 -9z"/>
<path d="M1925 481 c-2 -5 4 -11 15 -14 11 -3 20 -2 20 3 0 12 -28 21 -35 11z"/>
<path d="M1715 473 c11 -3 25 -10 32 -15 7 -5 22 -6 35 -2 22 7 22 7 3 15 -11
4 -36 7 -55 7 -20 0 -27 -2 -15 -5z"/>
<path d="M2121 471 c-8 -6 -9 -11 -3 -15 6 -3 14 -1 17 5 9 14 2 20 -14 10z"/>
<path d="M2170 470 c0 -5 5 -10 10 -10 6 0 10 5 10 10 0 6 -4 10 -10 10 -5 0
-10 -4 -10 -10z"/>
<path d="M1863 463 c9 -2 23 -2 30 0 6 3 -1 5 -18 5 -16 0 -22 -2 -12 -5z"/>
<path d="M2040 460 c0 -5 5 -10 10 -10 6 0 10 5 10 10 0 6 -4 10 -10 10 -5 0
-10 -4 -10 -10z"/>
<path d="M2080 460 c0 -5 5 -10 10 -10 6 0 10 5 10 10 0 6 -4 10 -10 10 -5 0
-10 -4 -10 -10z"/>
<path d="M3728 463 c6 -2 18 -2 25 0 6 3 1 5 -13 5 -14 0 -19 -2 -12 -5z"/>
<path d="M4060 455 c0 -9 5 -15 11 -13 6 2 11 8 11 13 0 5 -5 11 -11 13 -6 2
-11 -4 -11 -13z"/>
<path d="M2225 440 c-21 -23 -16 -25 19 -9 14 7 23 16 20 20 -8 14 -19 11 -39
-11z"/>
<path d="M1680 440 c0 -5 5 -10 10 -10 6 0 10 5 10 10 0 6 -4 10 -10 10 -5 0
-10 -4 -10 -10z"/>
<path d="M3760 436 c0 -2 7 -6 15 -10 8 -3 15 -1 15 4 0 6 -7 10 -15 10 -8 0
-15 -2 -15 -4z"/>
<path d="M1526 414 c-9 -24 -7 -28 9 -14 17 14 20 30 6 30 -5 0 -12 -7 -15
-16z"/>
<path d="M2000 420 c-8 -5 -12 -12 -9 -15 8 -8 39 5 39 16 0 11 -11 11 -30 -1z"/>
<path d="M1435 400 c3 -5 10 -10 16 -10 5 0 9 5 9 10 0 6 -7 10 -16 10 -8 0
-12 -4 -9 -10z"/>
<path d="M2230 400 c0 -5 11 -10 25 -10 14 0 25 5 25 10 0 6 -11 10 -25 10
-14 0 -25 -4 -25 -10z"/>
<path d="M2093 331 c-11 -18 -10 -19 10 -14 12 3 38 6 57 5 l35 -1 -25 14
c-35 20 -63 18 -77 -4z"/>
<path d="M2375 340 c3 -5 8 -10 11 -10 2 0 4 5 4 10 0 6 -5 10 -11 10 -5 0 -7
-4 -4 -10z"/>
<path d="M1628 313 c7 -3 16 -2 19 1 4 3 -2 6 -13 5 -11 0 -14 -3 -6 -6z"/>
<path d="M4190 305 c0 -9 5 -15 11 -13 6 2 11 8 11 13 0 5 -5 11 -11 13 -6 2
-11 -4 -11 -13z"/>
<path d="M2246 297 c-17 -12 -17 -14 -2 -20 10 -4 16 -1 16 7 0 8 6 17 13 19
6 3 7 6 1 6 -5 1 -18 -5 -28 -12z"/>
<path d="M3645 290 c-3 -5 -1 -10 4 -10 6 0 11 5 11 10 0 6 -2 10 -4 10 -3 0
-8 -4 -11 -10z"/>
<path d="M1535 280 c-3 -5 1 -10 9 -10 9 0 16 5 16 10 0 6 -4 10 -9 10 -6 0
-13 -4 -16 -10z"/>
<path d="M2190 280 c0 -5 5 -10 10 -10 6 0 10 5 10 10 0 6 -4 10 -10 10 -5 0
-10 -4 -10 -10z"/>
<path d="M1686 273 c-11 -11 -6 -23 8 -23 8 0 17 4 20 9 7 10 -19 23 -28 14z"/>
<path d="M1790 270 l-35 -6 43 -23 c24 -12 47 -20 50 -16 3 3 -4 8 -16 12 -26
6 -29 20 -4 25 32 6 -3 14 -38 8z"/>
<path d="M1860 260 c0 -5 7 -10 15 -10 8 0 15 5 15 10 0 6 -7 10 -15 10 -8 0
-15 -4 -15 -10z"/>
<path d="M2070 232 c-5 -9 -10 -12 -10 -6 0 6 -13 9 -32 6 l-33 -5 39 -18 c22
-9 46 -15 54 -11 10 3 13 1 8 -6 -4 -8 0 -12 11 -12 11 0 24 -5 29 -10 7 -7
17 -3 32 10 25 23 36 26 29 6 -3 -8 5 -18 19 -25 23 -10 35 1 14 14 -14 9 -12
25 3 21 6 -3 25 -7 40 -10 15 -4 25 -11 22 -16 -3 -6 -5 -10 -3 -11 59 -9 88
-9 88 1 0 6 -11 10 -25 8 -13 -2 -23 2 -22 7 1 6 16 10 32 10 23 0 30 4 30 20
0 17 -6 20 -38 17 -21 -2 -45 2 -53 9 -17 14 -19 -2 -1 -20 10 -11 9 -13 -6
-7 -10 3 -25 6 -33 6 -8 0 -14 7 -14 15 0 8 -8 15 -17 16 -10 0 -48 2 -85 4
-55 3 -70 0 -78 -13z m30 -6 c0 -3 -4 -8 -10 -11 -5 -3 -10 -1 -10 4 0 6 5 11
10 11 6 0 10 -2 10 -4z m125 -6 c3 -5 -1 -10 -9 -10 -9 0 -16 5 -16 10 0 6 4
10 9 10 6 0 13 -4 16 -10z"/>
<path d="M1946 201 c10 -10 39 -15 64 -11 18 2 -26 18 -54 19 -13 1 -16 -3
-10 -8z"/>
<path d="M1860 185 c0 -8 4 -15 10 -15 5 0 7 7 4 15 -4 8 -8 15 -10 15 -2 0
-4 -7 -4 -15z"/>
<path d="M1755 180 c27 -12 35 -12 35 0 0 6 -12 10 -27 9 -25 0 -26 -1 -8 -9z"/>
<path d="M1910 175 c-11 -13 -10 -14 4 -9 9 3 16 10 16 15 0 13 -6 11 -20 -6z"/>
<path d="M3638 163 c7 -3 16 -2 19 1 4 3 -2 6 -13 5 -11 0 -14 -3 -6 -6z"/>
<path d="M1618 153 c7 -3 16 -2 19 1 4 3 -2 6 -13 5 -11 0 -14 -3 -6 -6z"/>
<path d="M1770 141 c-20 -6 -22 -9 -10 -16 8 -6 24 -10 36 -10 15 -1 20 4 16
17 -5 19 -5 19 -42 9z"/>
<path d="M1920 141 c0 -6 5 -13 10 -16 6 -3 10 1 10 9 0 9 -4 16 -10 16 -5 0
-10 -4 -10 -9z"/>
<path d="M2195 142 c-11 -12 -4 -22 18 -23 21 0 21 -1 2 -9 -29 -13 -35 -12
-35 5 0 25 -25 6 -26 -20 -1 -14 -1 -25 1 -25 1 0 20 7 41 16 22 9 52 14 71
11 18 -3 33 -2 33 4 0 5 -13 9 -30 9 -21 0 -28 4 -24 14 5 13 -39 29 -51 18z"/>
<path d="M2122 128 c-15 -15 -16 -35 -2 -43 17 -11 32 5 20 20 -7 8 -9 19 -5
25 8 14 2 13 -13 -2z"/>
<path d="M2051 121 c-8 -6 -9 -11 -3 -15 6 -3 14 -1 17 5 9 14 2 20 -14 10z"/>
<path d="M2304 114 c3 -9 6 -18 6 -20 0 -3 5 -2 10 1 6 3 10 1 10 -4 0 -6 -19
-11 -42 -12 -42 -1 -42 -1 -15 -12 19 -8 27 -18 27 -36 0 -19 3 -22 12 -13 13
13 29 16 26 5 -2 -5 2 -8 7 -8 6 0 9 4 7 9 -1 4 11 6 28 4 16 -3 30 -1 30 4 0
4 11 8 25 8 14 0 28 7 31 15 4 8 16 15 27 15 16 0 18 3 10 11 -9 9 -18 8 -36
-3 -13 -9 -35 -14 -50 -11 -22 4 -26 2 -21 -11 8 -20 0 -20 -20 0 -21 20 -20
34 2 34 9 1 -1 9 -23 20 -49 24 -59 25 -51 4z"/>
<path d="M3600 119 c0 -5 5 -7 10 -4 6 3 10 8 10 11 0 2 -4 4 -10 4 -5 0 -10
-5 -10 -11z"/>
<path d="M4244 119 c-41 -15 -37 -29 8 -28 48 0 102 17 61 18 -13 1 -26 1 -29
0 -4 0 -10 4 -13 9 -3 5 -15 6 -27 1z"/>
<path d="M3450 100 c-12 -8 -11 -10 7 -10 12 0 25 5 28 10 8 13 -15 13 -35 0z"/>
<path d="M3865 80 c3 -5 10 -10 16 -10 5 0 9 5 9 10 0 6 -7 10 -16 10 -8 0
-12 -4 -9 -10z"/>
<path d="M3937 68 c-32 -11 -56 -22 -54 -24 2 -3 16 0 31 6 15 5 43 10 62 10
24 0 34 5 34 15 0 18 -1 18 -73 -7z"/>
<path d="M2200 61 c0 -5 9 -7 20 -4 11 3 20 7 20 9 0 2 -9 4 -20 4 -11 0 -20
-4 -20 -9z"/>
<path d="M2163 14 c0 -10 8 -14 25 -12 37 4 40 28 5 28 -20 0 -30 -5 -30 -16z"/>
<path d="M2430 14 c0 -8 10 -14 25 -14 22 0 38 19 18 21 -5 0 -16 2 -25 4 -10
2 -18 -3 -18 -11z"/>
<path d="M1925 10 c-4 -6 9 -10 32 -9 30 0 34 2 18 9 -27 12 -43 12 -50 0z"/>
<path d="M2023 3 c9 -2 23 -2 30 0 6 3 -1 5 -18 5 -16 0 -22 -2 -12 -5z"/>
</g>
</svg>
