<?xml version="1.0" standalone="no"?>
<!DOCTYPE svg PUBLIC "-//W3C//DTD SVG 20010904//EN"
 "http://www.w3.org/TR/2001/REC-SVG-20010904/DTD/svg10.dtd">
<svg version="1.0" xmlns="http://www.w3.org/2000/svg"
 width="300.000000pt" height="300.000000pt" viewBox="0 0 300.000000 300.000000"
 preserveAspectRatio="xMidYMid meet">
<metadata>
Created by potrace 1.10, written by Peter Selinger 2001-2011
</metadata>
<g transform="translate(0.000000,300.000000) scale(0.100000,-0.100000)"
fill="#000000" stroke="none">
<path d="M1285 2749 c-83 -13 -115 -21 -121 -30 -3 -5 -16 -9 -29 -9 -13 0
-30 -6 -37 -12 -7 -7 -34 -23 -60 -36 -52 -25 -57 -31 -63 -64 -3 -13 -8 -24
-12 -26 -29 -9 -73 -44 -73 -57 0 -9 -8 -27 -17 -41 -13 -21 -14 -30 -5 -45 7
-10 12 -22 12 -26 0 -5 -5 -1 -10 7 -7 11 -10 0 -10 -37 0 -28 5 -55 11 -58
15 -10 18 -4 23 49 4 35 11 53 31 70 26 23 24 46 -3 23 -13 -10 -14 -9 -4 10
7 12 11 28 10 35 -2 8 6 13 21 12 18 -1 27 8 41 41 17 40 74 95 97 95 6 0 14
7 17 16 4 11 13 14 30 10 16 -4 26 -1 30 10 4 10 13 13 26 9 13 -4 20 -2 20 7
0 9 3 9 8 2 4 -6 17 -13 30 -17 17 -4 21 -2 13 6 -7 9 0 12 28 9 25 -3 43 2
53 11 17 17 73 13 96 -6 12 -9 11 -12 -5 -18 -16 -7 -16 -8 5 -15 12 -3 22
-10 22 -15 0 -5 8 -9 18 -9 13 0 14 -2 4 -9 -11 -7 -11 -9 1 -14 24 -9 14 23
-14 44 -15 12 -19 19 -10 19 11 0 9 4 -5 14 -15 12 -16 17 -7 27 10 10 16 9
30 -3 10 -9 30 -20 46 -23 15 -4 30 -11 33 -17 3 -5 15 -6 26 -2 16 5 20 3 15
-9 -4 -10 3 -21 18 -31 34 -22 41 -20 19 7 -10 12 9 -3 42 -33 34 -30 68 -68
76 -84 10 -18 18 -24 23 -17 4 7 3 17 -3 24 -14 19 -22 47 -13 47 5 0 19 -16
32 -35 13 -19 30 -33 36 -30 7 2 12 -1 10 -7 -1 -6 4 -13 11 -15 17 -6 15 12
-3 27 -8 7 -15 18 -16 24 -2 20 -88 88 -114 90 -14 0 -25 4 -25 9 0 4 -11 12
-25 17 -14 5 -25 13 -25 18 0 5 -16 16 -35 25 -19 9 -35 12 -35 7 0 -6 -7 -7
-17 -1 -82 41 -148 48 -268 30z"/>
<path d="M1344 2651 c7 -11 106 -34 114 -26 5 5 -5 9 -63 24 -49 13 -58 14
-51 2z"/>
<path d="M1063 2613 c-7 -2 -13 -8 -13 -12 0 -9 69 -31 91 -30 8 0 -4 6 -26
13 -22 7 -39 18 -37 24 1 7 1 12 0 11 -2 0 -9 -3 -15 -6z"/>
<path d="M1330 2610 c-23 -6 -23 -7 10 -12 19 -3 53 -6 75 -6 l40 0 -35 8
c-19 5 -40 7 -47 5 -6 -2 -13 0 -15 4 -2 4 -14 4 -28 1z"/>
<path d="M1273 2580 c-13 -5 -23 -11 -23 -12 0 -2 32 -1 71 0 39 2 69 5 67 7
-10 9 -97 13 -115 5z"/>
<path d="M1496 2581 c5 -5 18 -11 29 -14 11 -3 -1 -5 -27 -6 -26 0 -50 -5 -53
-11 -7 -12 0 -13 85 -11 39 0 60 -3 52 -8 -10 -6 -8 -10 11 -15 13 -3 43 -24
65 -47 23 -25 45 -39 52 -34 7 4 -6 23 -39 52 -28 25 -51 52 -51 59 0 8 -11
14 -26 14 -14 0 -34 5 -45 11 -27 14 -65 21 -53 10z"/>
<path d="M1792 2503 c3 -18 1 -33 -4 -33 -4 0 -8 -9 -8 -20 0 -11 5 -20 10
-20 6 0 10 5 10 11 0 5 5 7 10 4 16 -10 11 48 -6 70 -15 19 -16 19 -12 -12z"/>
<path d="M1145 2511 c-6 -6 -38 -12 -72 -15 -35 -2 -72 -11 -83 -19 -19 -14
-17 -14 27 -10 26 2 60 9 75 15 15 5 32 7 37 3 6 -3 11 -2 11 2 0 5 12 14 28
20 22 9 24 11 7 12 -12 1 -25 -3 -30 -8z"/>
<path d="M1830 2481 c0 -5 7 -14 15 -21 12 -10 13 -16 1 -39 -10 -19 -11 -32
-4 -45 6 -11 8 -41 4 -71 -7 -65 -15 -87 -28 -79 -5 3 -9 -2 -7 -12 1 -11 -2
-39 -6 -63 l-8 -44 -18 24 c-10 13 -18 38 -18 54 0 17 -4 62 -9 100 -4 39 -5
72 0 73 11 5 10 40 -2 47 -6 3 -7 -1 -4 -9 4 -9 0 -18 -9 -22 -12 -4 -16 -20
-15 -67 0 -34 5 -70 10 -81 6 -10 12 -108 14 -217 4 -184 3 -199 -14 -200 -10
0 -12 -3 -5 -6 16 -6 5 -95 -14 -106 -7 -4 -13 -13 -13 -18 0 -6 6 -7 13 -3 8
5 8 2 -2 -9 -7 -9 -20 -17 -27 -17 -8 0 -14 -5 -14 -11 0 -5 5 -7 10 -4 6 3
10 0 10 -8 0 -8 -16 -22 -35 -33 -20 -10 -33 -24 -31 -30 3 -7 -5 -15 -17 -18
-13 -3 -40 -20 -62 -39 -22 -19 -50 -39 -62 -46 -13 -6 -23 -19 -23 -27 0 -14
2 -14 16 0 8 9 20 16 26 16 5 0 23 10 38 23 55 43 85 62 100 62 8 0 14 8 14
17 -1 10 1 17 5 16 3 -1 16 2 29 6 33 11 97 145 100 211 4 62 10 85 24 85 18
0 45 38 83 116 32 64 35 80 29 119 -5 39 -24 65 -47 65 -12 0 -13 -39 -1 -44
28 -11 17 -87 -23 -166 -21 -41 -43 -75 -49 -77 -7 -2 -15 16 -19 44 -5 26 -9
53 -11 59 -5 25 17 110 31 120 8 6 15 16 15 23 0 6 9 16 20 23 12 8 20 24 20
41 0 15 7 44 15 64 17 40 20 89 6 97 -10 7 -5 39 11 73 9 18 8 27 -7 43 -18
20 -55 28 -55 11z"/>
<path d="M1126 2386 c-4 -19 -18 -46 -33 -60 -14 -14 -22 -26 -17 -26 5 0 2
-5 -6 -10 -9 -6 -10 -10 -3 -10 6 0 25 14 42 31 24 24 31 39 31 70 0 48 -6 50
-14 5z"/>
<path d="M905 2358 c-4 -10 -5 -23 -2 -30 2 -7 0 -21 -5 -32 -7 -12 -6 -22 1
-29 6 -6 11 -25 11 -42 0 -17 9 -57 20 -89 14 -38 19 -69 14 -91 -4 -23 1 -52
16 -92 12 -32 23 -76 25 -98 15 -157 16 -159 66 -254 58 -108 88 -150 108
-150 8 -1 22 -7 30 -15 9 -8 36 -17 61 -20 l45 -7 -25 20 c-14 11 -28 21 -32
21 -18 0 -47 41 -42 57 5 14 4 15 -4 4 -8 -11 -10 -11 -15 0 -5 12 -6 12 -6 0
-1 -11 -4 -11 -16 -1 -11 9 -12 15 -2 25 7 7 15 11 18 9 3 -2 4 8 1 21 -2 14
-9 25 -14 25 -5 0 -6 -4 -3 -10 3 -5 2 -10 -4 -10 -5 0 -13 -10 -17 -22 l-7
-23 -9 24 c-6 18 -4 28 10 41 15 14 18 28 14 69 -4 51 10 87 29 75 5 -3 21 -7
34 -10 23 -4 24 -3 13 16 -7 11 -22 20 -34 20 -14 0 -20 6 -20 20 1 26 -8 22
-61 -26 -35 -32 -41 -43 -29 -47 10 -4 16 -1 16 8 0 18 14 27 32 20 10 -4 12
-20 8 -65 -7 -75 -7 -75 -22 -75 -8 0 -12 10 -10 26 1 16 -6 33 -20 45 -12 10
-18 13 -13 5 5 -10 4 -12 -3 -7 -7 4 -12 14 -12 22 0 8 -7 25 -15 38 -10 14
-14 37 -11 59 3 21 1 37 -3 37 -8 0 -8 17 1 85 2 13 -2 20 -13 19 -23 -2 -37
72 -45 246 -7 148 -10 172 -24 149 -6 -9 -12 -2 -18 22 -7 27 -11 30 -17 17z"/>
<path d="M1020 2349 c0 -5 -4 -8 -9 -5 -18 12 -21 -28 -5 -70 20 -52 39 -59
28 -11 -4 17 -8 47 -8 65 1 17 -1 32 -3 32 -1 0 -3 -5 -3 -11z"/>
<path d="M1513 2249 c31 -18 18 -28 -30 -22 -83 9 -173 -28 -173 -73 0 -14 1
-14 16 0 8 9 25 16 37 17 12 0 29 2 37 4 87 23 114 26 168 22 61 -5 63 -4 46
14 -9 10 -24 19 -33 19 -9 0 -29 7 -45 15 -32 17 -51 20 -23 4z"/>
<path d="M1070 2176 c-14 -18 -35 -22 -24 -5 4 7 -1 9 -12 7 -11 -2 -18 -10
-16 -17 1 -7 -2 -10 -7 -7 -5 4 -13 1 -16 -5 -13 -21 10 -27 49 -14 26 9 58
11 99 7 70 -8 88 -28 27 -30 -22 -1 -57 -9 -76 -17 -48 -20 -54 -19 -25 5 13
11 18 20 12 20 -7 0 -23 -11 -36 -24 -22 -23 -26 -23 -35 -8 -9 14 -10 13 -8
-7 2 -15 10 -25 22 -27 10 -1 22 -7 25 -12 9 -14 52 -26 81 -23 28 3 61 22 91
52 23 23 26 79 4 79 -8 0 -15 4 -15 9 0 11 -32 21 -86 27 -29 4 -44 1 -54 -10z
m114 -81 c-4 -10 0 -15 12 -15 11 0 -1 -9 -25 -20 -53 -25 -111 -27 -111 -4 0
8 5 12 10 9 6 -3 13 1 16 10 5 11 10 13 19 5 14 -11 58 1 70 19 9 16 15 13 9
-4z"/>
<path d="M1525 2145 c28 -13 26 -13 -35 -8 -57 6 -63 4 -53 -9 8 -9 32 -15 60
-17 27 0 55 -3 63 -6 18 -6 75 41 61 49 -6 4 -16 -2 -23 -14 -7 -11 -19 -20
-26 -20 -7 0 -11 4 -8 9 6 9 -36 31 -57 31 -7 -1 2 -7 18 -15z"/>
<path d="M1331 2113 c-16 -34 -14 -39 7 -20 10 10 21 15 24 12 3 -3 18 -1 33
5 34 13 28 20 -18 25 -29 2 -37 -1 -46 -22z"/>
<path d="M1375 2090 c-10 -17 47 -32 102 -28 47 4 91 24 78 36 -2 3 -11 0 -18
-7 -26 -21 -104 -25 -131 -7 -15 10 -27 12 -31 6z"/>
<path d="M1800 2058 c1 -20 26 -48 36 -40 4 4 2 -2 -6 -13 -8 -11 -21 -26 -29
-32 -19 -16 2 -18 30 -3 25 14 26 68 2 86 -23 17 -33 17 -33 2z"/>
<path d="M1399 1958 c0 -2 -2 -14 -5 -27 -3 -19 -2 -21 9 -12 11 8 26 2 67
-29 56 -42 96 -56 47 -17 -15 12 -44 37 -64 55 -32 28 -51 38 -54 30z"/>
<path d="M1154 1929 c-49 -80 -84 -170 -48 -124 22 27 67 125 61 131 -3 3 -8
0 -13 -7z"/>
<path d="M1185 1900 c-4 -6 -1 -17 5 -25 6 -8 9 -18 6 -23 -7 -12 26 -12 42 1
8 7 12 5 12 -6 0 -8 6 -17 13 -20 17 -6 4 -18 -22 -20 -24 -2 -29 -17 -5 -17
10 0 14 -5 10 -15 -4 -12 0 -14 19 -9 17 4 25 2 25 -7 0 -11 2 -11 8 -2 4 7
17 14 27 16 11 1 25 5 30 8 17 9 75 10 75 0 0 -5 -6 -14 -14 -20 -16 -13 -146
-42 -157 -35 -4 2 -11 -1 -15 -7 -10 -17 92 -4 163 21 68 24 92 25 99 5 4 -8
12 -15 18 -15 7 0 22 -9 34 -20 12 -12 22 -17 22 -13 0 4 5 0 11 -10 8 -14 14
-16 25 -6 8 6 14 16 14 22 0 6 -6 3 -13 -7 -12 -16 -14 -16 -25 9 -7 14 -16
24 -21 20 -5 -3 -13 0 -17 6 -4 8 -3 9 4 5 7 -4 12 -1 12 7 0 11 -7 13 -22 9
-19 -5 -21 -2 -15 25 4 19 1 38 -8 49 -12 17 -13 17 -8 -8 8 -41 -16 -46 -49
-9 -19 22 -28 26 -28 15 0 -10 -6 -14 -14 -11 -8 3 -17 1 -19 -6 -3 -9 -8 -9
-19 1 -9 7 -26 15 -38 17 -28 5 -34 11 -25 24 3 6 17 8 31 5 20 -5 24 -2 24
15 0 25 -40 47 -67 37 -13 -6 -14 -9 -4 -15 18 -11 14 -25 -10 -33 -14 -6 -30
-1 -52 16 -47 34 -55 37 -62 26z m133 -103 c3 -12 -3 -17 -22 -17 -25 0 -35
18 -19 34 12 12 38 2 41 -17z"/>
<path d="M1224 1655 c11 -8 29 -15 40 -15 18 -1 17 -3 -6 -13 -22 -10 -24 -14
-13 -24 9 -8 16 -9 20 -3 3 6 11 10 16 10 6 0 7 -4 4 -10 -10 -16 11 -12 25 5
7 8 18 15 25 15 11 0 25 21 25 37 0 3 -27 3 -59 1 -33 -1 -63 0 -67 5 -4 4
-12 7 -18 7 -6 0 -2 -7 8 -15z"/>
<path d="M1515 1631 c2 -36 28 -54 38 -27 3 8 -4 21 -17 29 -20 14 -22 14 -21
-2z"/>
<path d="M1732 1525 c1 -55 -8 -79 -44 -111 -12 -11 -33 -32 -45 -45 -12 -13
-29 -30 -37 -37 -9 -7 -16 -18 -16 -24 0 -10 73 48 150 117 19 18 47 35 61 39
23 5 28 2 35 -22 4 -15 6 -31 5 -35 -1 -5 4 -5 10 -2 7 5 10 1 7 -11 -3 -13
-11 -18 -26 -17 -12 2 -22 -1 -22 -5 0 -12 32 -11 47 0 6 5 14 5 17 0 10 -17
-141 -167 -216 -214 -75 -48 -76 -48 -162 -48 -47 0 -86 3 -86 6 0 3 23 28 52
55 29 27 48 49 42 49 -6 0 -28 -18 -50 -40 -28 -28 -58 -46 -104 -60 -36 -12
-69 -27 -75 -34 -5 -6 -31 -22 -57 -34 -27 -12 -48 -28 -48 -36 0 -8 -3 -16
-7 -18 -17 -7 -40 -65 -41 -103 -1 -38 0 -39 8 -11 5 16 7 33 5 37 -3 4 8 18
24 32 16 13 31 33 33 43 2 11 13 20 26 22 12 2 22 7 22 12 0 4 16 8 35 8 19 0
35 -4 35 -8 0 -10 -38 -78 -56 -100 -19 -24 -71 -159 -89 -230 -8 -36 -18 -74
-21 -85 -6 -20 -6 -20 9 0 8 12 20 47 26 80 6 32 16 64 21 69 6 6 10 18 10 29
0 29 71 167 83 160 6 -3 7 -1 3 6 -13 20 33 70 75 82 21 7 39 16 39 20 0 14
58 20 93 11 24 -7 45 -6 73 4 21 8 46 11 54 8 8 -3 11 -2 8 2 -7 6 22 44 32
41 16 -4 156 136 166 165 7 24 21 23 56 -7 37 -31 173 -100 216 -109 17 -4 32
-12 32 -17 0 -5 7 -9 15 -9 9 0 18 -7 21 -15 4 -8 10 -12 15 -9 6 3 15 2 22
-3 7 -4 -1 4 -17 19 -17 14 -49 31 -71 38 -65 19 -219 98 -245 125 -21 22 -22
28 -10 35 20 13 47 12 71 0 23 -13 26 -32 2 -23 -10 4 -14 2 -10 -4 4 -6 22
-14 41 -17 25 -5 34 -11 29 -21 -3 -10 2 -15 17 -15 12 0 35 -9 51 -21 16 -11
29 -17 29 -12 0 4 4 3 8 -3 4 -6 22 -19 40 -28 18 -9 36 -24 39 -31 3 -8 9
-13 13 -10 5 3 15 -2 24 -10 8 -9 19 -16 23 -17 14 -1 53 -36 53 -46 0 -6 -6
-12 -12 -15 -7 -2 2 -4 21 -5 21 0 50 -12 75 -30 42 -31 60 -57 31 -46 -9 4 0
-11 19 -32 36 -39 43 -54 28 -54 -16 0 -9 -27 10 -39 18 -11 18 -10 8 9 -20
38 -3 32 20 -7 14 -24 18 -39 11 -41 -9 -3 -9 -8 -1 -17 6 -7 15 -27 20 -44 7
-26 6 -31 -8 -32 -14 0 -14 -2 2 -8 14 -5 16 -10 8 -15 -7 -4 -10 -12 -7 -17
4 -5 1 -9 -6 -9 -9 0 -9 -3 0 -14 9 -11 9 -15 -1 -19 -7 -3 -4 -6 7 -6 15 -1
17 -3 6 -10 -11 -7 -9 -11 8 -20 11 -7 21 -19 20 -29 0 -15 -1 -15 -8 1 -6 17
-8 17 -20 3 -10 -12 -10 -16 -2 -16 7 0 11 -8 10 -17 -2 -14 5 -63 16 -113 1
-3 4 -31 9 -63 4 -31 12 -57 18 -57 11 0 7 70 -11 240 -5 41 -14 119 -20 174
-9 80 -16 107 -40 145 -16 25 -41 70 -56 99 -20 38 -40 61 -78 86 -29 19 -61
41 -72 50 -27 22 -183 124 -217 142 -15 7 -44 30 -65 49 -21 19 -58 44 -83 56
-36 17 -51 32 -70 71 -32 63 -43 73 -70 58 -31 -17 -43 -8 -57 41 l-12 44 1
-50z m-339 -419 c7 -16 -37 -35 -66 -28 -15 3 -12 7 15 22 42 23 45 23 51 6z"/>
<path d="M1164 1395 c-4 -8 -12 -15 -19 -15 -7 0 -12 -8 -11 -17 0 -11 -5 -17
-13 -15 -12 3 -12 0 -2 -12 7 -8 8 -17 3 -20 -5 -3 -12 -28 -16 -56 -9 -67 -9
-64 4 -68 6 -2 10 0 9 5 -4 23 2 43 11 38 6 -4 9 -14 8 -23 -2 -10 4 -17 12
-17 9 0 17 15 22 44 4 25 12 49 18 55 5 5 10 34 10 63 0 41 -3 53 -15 53 -9 0
-18 -7 -21 -15z"/>
<path d="M930 1233 c-30 -7 -66 -21 -79 -31 -13 -9 -56 -38 -95 -63 -47 -30
-79 -59 -93 -85 -25 -43 -59 -179 -68 -269 -4 -33 -10 -76 -15 -95 -5 -19 -14
-84 -19 -145 -13 -147 -24 -193 -50 -211 -14 -10 -21 -26 -21 -46 0 -17 -7
-36 -15 -42 -13 -9 -9 -11 17 -12 18 -1 52 -8 76 -15 42 -13 44 -13 62 11 24
32 18 38 -10 10 -16 -16 -28 -20 -48 -15 -36 9 -36 9 -17 39 16 25 32 31 65
26 11 -1 12 1 4 10 -9 9 -20 8 -48 -5 -20 -10 -36 -21 -36 -26 0 -5 -4 -9 -9
-9 -15 0 -20 40 -6 53 7 7 16 23 20 36 4 13 10 19 14 14 8 -13 41 -13 41 0 0
5 -9 11 -20 14 -24 6 -26 21 -4 30 8 3 13 12 10 19 -3 8 -2 14 2 14 4 0 6 46
5 102 -2 84 0 97 8 69 6 -19 17 -40 26 -46 15 -11 25 -88 11 -79 -5 3 -8 1 -8
-4 0 -5 9 -12 20 -15 18 -5 19 -1 13 42 -3 25 -11 50 -17 54 -8 6 -7 10 2 14
6 2 11 14 11 26 -1 17 -2 18 -6 5 -2 -10 -8 -18 -13 -18 -16 0 -24 25 -26 82
-1 48 1 56 12 47 11 -9 14 -8 14 5 0 9 -4 16 -8 16 -9 0 2 137 14 179 4 14 8
32 10 40 1 8 7 17 11 20 5 3 10 17 10 30 1 13 6 27 11 30 5 3 11 14 15 24 3 9
14 17 23 17 9 0 27 11 40 25 13 14 33 25 46 26 13 0 17 3 10 6 -17 7 -5 23 17
23 10 0 26 11 34 24 11 16 30 26 54 31 40 6 71 21 63 28 -3 3 -30 -2 -60 -10z"/>
<path d="M899 1175 c-4 -15 -7 -22 -18 -49 -6 -16 -10 -31 -7 -33 2 -3 7 5 11
16 3 12 11 21 17 21 6 0 8 3 5 7 -4 3 0 15 10 25 15 17 15 18 0 18 -10 0 -18
-2 -18 -5z"/>
<path d="M1045 1160 c-22 -15 -40 -19 -65 -16 l-35 5 25 -19 c14 -11 28 -20
33 -20 4 0 7 -6 7 -14 0 -8 5 -18 12 -22 7 -5 9 -2 6 8 -6 15 6 28 55 61 15 9
28 20 30 25 5 16 -40 11 -68 -8z"/>
<path d="M1145 1152 c3 -9 -1 -12 -15 -7 -19 6 -20 2 -19 -82 l1 -88 14 55 c7
30 11 65 7 78 -6 26 0 27 32 6 33 -22 49 -14 51 25 2 31 1 32 -37 29 -29 -1
-38 -6 -34 -16z"/>
<path d="M2123 978 c-65 -66 -127 -141 -161 -193 -22 -36 -34 -70 -37 -115 -4
-38 -3 -40 4 -14 26 103 196 337 276 382 15 9 16 11 4 12 -8 0 -47 -33 -86
-72z"/>
<path d="M1150 891 c0 -5 -3 -16 -6 -25 -4 -11 0 -16 14 -16 15 0 20 6 18 25
-1 23 -26 38 -26 16z"/>
<path d="M661 810 c-7 -36 -6 -139 2 -131 4 4 6 39 4 77 -1 38 -4 62 -6 54z"/>
<path d="M2046 784 c-9 -8 -14 -20 -11 -25 10 -15 21 -10 33 16 13 28 1 33
-22 9z"/>
<path d="M1967 703 c-4 -3 -7 -13 -7 -22 0 -9 -8 -29 -17 -46 -26 -49 -20
-270 12 -375 14 -45 24 -85 24 -88 -1 -4 0 -23 1 -42 2 -28 4 -23 11 25 7 49
6 67 -8 95 -9 19 -18 64 -20 100 -10 168 -11 245 -1 269 11 29 22 91 15 91 -2
0 -7 -3 -10 -7z"/>
<path d="M1080 590 c0 -5 -10 -10 -22 -10 -12 0 -18 -3 -15 -7 10 -10 77 -8
76 3 -1 5 -5 8 -10 7 -5 -2 -9 2 -9 7 0 6 -4 10 -10 10 -5 0 -10 -4 -10 -10z"/>
<path d="M1410 575 c0 -8 -4 -15 -10 -15 -16 0 -12 -20 5 -25 8 -3 23 -8 33
-11 50 -19 120 16 86 43 -11 8 -24 9 -39 3 -13 -5 -26 -6 -30 -2 -4 4 -13 -2
-21 -12 -7 -11 -17 -17 -21 -13 -3 4 2 16 12 27 16 18 16 20 2 20 -10 0 -17
-7 -17 -15z"/>
<path d="M1131 553 c-1 -7 -9 -22 -18 -32 -14 -17 -25 -19 -62 -14 -32 4 -43
2 -36 -5 6 -6 30 -12 55 -14 40 -3 46 0 58 25 7 15 11 33 9 40 -4 9 -6 9 -6 0z"/>
<path d="M2043 473 c-7 -3 -13 -10 -13 -17 0 -7 -5 -17 -12 -24 -6 -6 -13 -28
-15 -49 l-3 -38 21 45 c12 25 26 53 31 63 11 22 8 26 -9 20z"/>
<path d="M1722 451 c-20 -12 -16 -24 10 -34 18 -7 20 -10 8 -17 -12 -8 -10
-10 8 -10 13 0 22 -6 22 -16 0 -8 5 -12 10 -9 6 3 10 1 10 -4 0 -6 5 -11 11
-11 9 0 -24 56 -41 70 -4 3 -11 13 -16 22 -6 11 -14 14 -22 9z"/>
<path d="M636 435 c3 -8 10 -13 16 -12 6 1 12 -24 14 -56 3 -56 3 -58 -19 -51
-12 3 -20 5 -17 3 3 -2 20 -17 39 -34 l33 -30 -7 60 c-4 33 -10 62 -14 65 -3
3 -6 18 -6 34 0 22 -5 30 -22 32 -16 3 -21 0 -17 -11z"/>
<path d="M2510 340 c0 -10 7 -26 16 -34 8 -9 12 -20 9 -26 -3 -5 -1 -10 5 -10
6 0 8 -4 5 -10 -3 -5 -3 -16 2 -22 4 -7 8 -18 9 -23 1 -6 11 -32 23 -58 24
-52 16 -87 -19 -87 -10 0 -22 -5 -26 -12 -5 -8 2 -9 24 -5 30 6 31 5 27 -23
-3 -22 1 -30 12 -30 14 0 15 13 10 93 -8 144 -36 243 -65 232 -12 -4 -13 -3
-2 10 7 8 11 15 9 16 -35 7 -39 6 -39 -11z"/>
<path d="M1809 319 c11 -11 23 -19 26 -19 3 0 5 8 5 19 0 13 -7 19 -26 19 -25
0 -25 -1 -5 -19z"/>
<path d="M1844 283 c3 -6 0 -14 -6 -16 -8 -3 -6 -6 5 -6 9 -1 17 -5 17 -10 0
-12 44 -61 54 -61 4 0 -2 12 -13 28 -30 39 -64 79 -57 65z"/>
<path d="M263 207 c-9 -15 18 -35 62 -46 52 -13 63 -26 35 -41 -30 -16 -27
-68 5 -80 14 -5 25 -16 25 -25 0 -16 16 -21 22 -6 2 5 21 11 43 13 22 3 49 10
60 15 11 6 25 12 30 13 6 2 19 9 30 16 11 7 56 18 100 23 44 6 92 13 107 17
20 4 31 1 44 -14 13 -16 22 -18 35 -11 26 13 52 -16 47 -53 -4 -23 -1 -28 17
-28 12 0 36 5 53 11 31 10 31 11 15 35 -10 16 -19 21 -23 14 -9 -14 -42 -1
-36 15 6 17 -145 70 -155 54 -4 -7 -18 -9 -35 -5 -19 4 -24 3 -15 -3 9 -6 -19
-9 -80 -10 -82 -1 -96 -4 -110 -22 -8 -11 -41 -29 -74 -40 -55 -18 -59 -18
-71 -1 -20 26 -17 50 11 68 34 22 110 30 130 14 11 -9 15 -9 15 -1 0 6 -10 16
-22 21 -18 7 -13 8 17 4 27 -4 37 -3 30 4 -14 14 -99 27 -91 14 7 -11 -25 -22
-66 -22 -49 0 -41 20 9 22 l48 1 -60 7 c-57 6 -56 7 35 9 76 2 89 5 65 12 -16
5 -42 7 -57 5 -16 -3 -28 -1 -28 4 0 12 -159 9 -167 -3z"/>
<path d="M1974 45 c15 -31 27 -44 41 -44 11 0 14 3 8 6 -7 2 -13 13 -13 22 0
20 -32 61 -48 61 -5 0 0 -20 12 -45z"/>
<path d="M835 44 c-6 -10 -38 -22 -75 -29 l-65 -13 90 1 c50 1 82 3 73 5 -21
4 -23 23 -6 40 7 7 8 12 2 12 -5 0 -14 -7 -19 -16z"/>
<path d="M2085 10 l-50 -7 55 0 c30 0 69 3 85 7 l30 8 -35 -1 c-19 0 -57 -3
-85 -7z"/>
<path d="M2328 3 c18 -2 45 -2 60 0 15 2 0 4 -33 4 -33 0 -45 -2 -27 -4z"/>
</g>
</svg>
